<svg width="130" height="40" fill="none" xmlns="http://www.w3.org/2000/svg"><path d="M10.859 13.816c.527.095 1.295 1.918 1.439 3.453.048.335 0 1.055 0 1.582-.048.816-.144 1.055-.432 1.44-.623.91-1.774 1.486-3.261 1.582-.432.048-1.151.096-1.535.096-.623-.048-.671-.048-.576-.288.048-.096.192-.432.288-.72.624-1.918 2.015-4.987 2.734-5.946.48-.72 1.055-1.248 1.343-1.2Zm-.48-4.173c-.24 0-.527.048-.959.192-.623.192-1.199.527-1.727.959-.767.575-.863.623-.91.384-.049-.384-.672-.912-1.248-.96-.575-.095-1.295.192-1.582.624-.144.192-.528.815-.912 1.439-.671 1.15-.91 1.966-.671 2.446.144.287.096.623-.336 2.686C1.267 21.153.02 28.875.02 30.361c-.048 3.357 0 6.522.048 7.146.144.959.48 1.63 1.103 2.062.623.432.96.528 1.63.336.672-.144 1.008-.384 1.391-.911.432-.624.528-1.295.528-4.22-.048-3.55.432-9.161.72-9.497.095-.048.719-.096 1.438 0 2.686.24 4.892-.24 6.57-1.487 1.823-1.343 2.59-2.877 2.734-5.467.144-3.405-.959-6.427-2.925-7.962-.624-.431-.816-.48-1.775-.623-.48-.096-.815-.144-1.103-.096ZM25.224 8.972c-.863 0-1.151.431-1.918 2.877-1.679 5.564-2.207 8.297-2.35 12.038-.096 2.542.096 3.117 1.103 3.645.335.144.623.24.671.24.336 0 1.007-.288 1.247-.528.384-.48 1.63-5.323 2.302-8.824.48-2.734.96-7.578.768-8.106-.336-.91-.912-1.342-1.823-1.342ZM27.43.003c-.863-.048-1.63.48-2.062 1.487-.48 1.15-.096 2.446.863 3.021 1.2.672 2.494.048 2.974-1.487.383-1.199 0-2.35-.911-2.781-.288-.144-.576-.24-.864-.24ZM44.427 11.226a.41.41 0 0 0-.336 0c-1.775.096-4.172 1.486-6.379 3.549-1.199 1.15-1.966 2.206-2.637 3.645-1.056 2.254-1.247 4.364-.48 5.755.767 1.39 2.398 2.542 4.172 2.877.384.096.816.192.96.24.144 0 1.055.048 2.062 0 1.679-.048 1.822-.048 3.405-.575 2.206-.768 3.405-1.343 3.693-1.823.528-.911.096-2.062-.863-2.398-.432-.144-.672-.096-2.59.384-2.062.527-2.206.576-3.645.48-1.679-.096-2.254-.192-2.926-.672-.383-.24-.431-.336-.431-.863 0-.72.575-2.158 1.199-3.165.575-.816 1.87-2.159 2.925-2.974l.72-.576.192.336c.335.528.767.768 1.342.768 1.056.048 1.727-.912 1.775-2.542.048-.864.048-1.056-.24-1.44a2.279 2.279 0 0 0-1.918-1.006ZM62.56 15.11h.193l.383.048-1.055 1.391a317.95 317.95 0 0 0-2.158 3.118 70.735 70.735 0 0 0-1.199 1.678c-.048.048-.048-.287 0-.72.096-1.582.576-2.589 2.11-4.268.816-.863 1.247-1.199 1.727-1.247Zm.48-3.549c-1.342.048-2.637.624-4.076 1.823-1.679 1.439-3.022 3.021-3.789 4.652-.288.671-.432 1.247-.863 3.645-.48 2.782-.48 2.83-.24 3.597.336 1.151.815 1.727 1.822 2.062.192.048.72.096 1.247.048.768 0 1.104-.096 1.631-.384 1.2-.623 2.878-2.445 4.556-4.987l1.007-1.487-.047 1.247c-.048 2.014 0 3.597.143 4.124.192.48.768.864 1.295.864.48 0 1.2-.432 1.535-.912.288-.383.336-.623.528-2.493.096-1.104.335-3.022.48-4.22.191-1.152.335-2.639.335-3.214 0-.576.048-1.247.144-1.487.192-.72-.144-1.583-.816-1.966-.431-.24-.671-.288-1.294-.192-.624.048-.912 0-1.535-.288-.528-.192-1.007-.336-1.535-.384-.192-.048-.384-.048-.527-.048ZM80.362 10.794c-.672 0-1.343.096-1.679.24-.815.431-2.494 1.966-2.878 2.686-.527.815-.575 1.918-.144 2.685.432.864 1.823 2.255 3.933 3.837 2.83 2.11 2.974 2.542 1.535 3.55-.288.239-.672.43-.863.43-.48 0-1.727-.623-3.07-1.486-.575-.432-1.199-.815-1.39-.863-1.056-.576-2.447.527-2.207 1.726.096.576.624 1.151 2.206 2.302 1.295 1.008 2.83 1.823 3.693 1.967.768.144.72.144 1.679 0 .48-.048 1.199-.336 1.63-.528.912-.527 2.255-1.774 2.782-2.638.816-1.39.528-3.597-.671-5.227-.432-.624-1.055-1.103-2.782-2.35-1.247-.863-2.35-1.727-2.446-1.823-.192-.24-.192-.287.144-.623.192-.192.528-.384.72-.432.335-.048.335-.048.335.288 0 1.727 2.59 2.062 3.214.431.287-.623.287-1.918.047-2.493-.24-.624-1.007-1.247-1.822-1.487-.48-.144-1.247-.24-1.966-.192ZM97.597 10.794c-.671 0-1.343.096-1.678.24-.816.431-2.494 1.966-2.878 2.686-.528.815-.575 1.918-.144 2.685.432.864 1.823 2.255 3.933 3.837 2.83 2.11 2.973 2.542 1.535 3.55-.288.239-.672.43-.864.43-.48 0-1.726-.623-3.07-1.486-.575-.432-1.198-.815-1.39-.863-1.055-.576-2.446.527-2.206 1.726.096.576.623 1.151 2.206 2.302 1.295 1.008 2.83 1.823 3.693 1.967.767.144.72.144 1.679 0 .48-.048 1.199-.336 1.63-.528.911-.527 2.254-1.774 2.782-2.638.815-1.39.527-3.597-.672-5.227-.431-.624-1.055-1.103-2.781-2.35-1.247-.863-2.35-1.727-2.446-1.823-.192-.24-.192-.287.144-.623.192-.192.527-.384.72-.432.335-.048.335-.048.335.288 0 1.727 2.59 2.062 3.213.431.288-.623.288-1.918.048-2.493-.24-.624-1.007-1.247-1.822-1.487-.48-.144-1.247-.24-1.967-.192ZM113.586 16.645c.096-.048.144 0 .192.096.096.288.719.528 1.678.72 1.679.24 2.207.91 1.727 2.158-.288.575-1.439 1.678-2.254 2.11-.72.384-2.014.527-2.542.336-.48-.24-.624-1.056-.432-2.782.192-2.11.288-2.254 1.055-2.542.288-.048.48-.096.576-.096ZM112.003 13c-.527 0-1.007.288-1.534.816-1.199 1.246-1.919 2.925-2.255 5.371-.383 2.638-.096 4.22 1.104 5.515.719.816 1.774 1.343 2.925 1.535.815.144 1.823.048 2.926-.192 2.446-.623 5.035-2.973 5.755-5.275 1.103-3.645-1.439-6.763-5.372-6.619-.623.048-1.247.096-1.391.192-.143.048-.239.048-.239-.096 0-.336-.768-1.007-1.343-1.15a2.41 2.41 0 0 0-.576-.097Z" fill="#fff"/><path d="M127.832 24.08c-.383 0-.767.047-1.103.239-.431.288-.767.96-.767 1.583 0 .527.48 1.199 1.007 1.486 1.487.768 3.07-.959 2.302-2.398-.24-.527-.863-.863-1.439-.91Z" fill="#FF8500"/></svg>