<svg width="24" height="24" viewBox="0 0 128 128" fill="none" xmlns="http://www.w3.org/2000/svg">
<path d="M64 128C99.3462 128 128 99.3462 128 64C128 28.6538 99.3462 0 64 0C28.6538 0 0 28.6538 0 64C0 99.3462 28.6538 128 64 128Z" fill="#E40C5B"/>
<path d="M64.0008 120.655C95.2903 120.655 120.656 95.2896 120.656 64C120.656 32.7104 95.2903 7.34525 64.0008 7.34525C32.7112 7.34525 7.34601 32.7104 7.34601 64C7.34601 95.2896 32.7112 120.655 64.0008 120.655Z" stroke="white" stroke-width="2"/>
<path d="M52.2777 83.4153V98.182C52.2777 99.8552 51.9225 101.307 51.2122 102.536C50.502 103.755 49.483 104.685 48.1552 105.325C46.8275 105.965 45.2577 106.286 43.446 106.286C40.708 106.286 38.5515 105.573 36.9767 104.147C35.4017 102.722 34.599 100.77 34.568 98.2903V83.4153H40.0185V98.3988C40.0802 100.868 41.2227 102.102 43.446 102.102C44.568 102.102 45.4172 101.792 45.9937 101.173C46.57 100.553 46.8582 99.5455 46.8582 98.151V83.4153H52.2777Z" fill="white"/>
<path d="M67.2697 99.9793C67.2697 99.184 66.9867 98.564 66.4205 98.12C65.8647 97.6758 64.8817 97.216 63.4715 96.7408C62.0615 96.2658 60.9085 95.806 60.013 95.3618C57.1 93.926 55.6435 91.953 55.6435 89.4428C55.6435 88.1928 56.0037 87.0928 56.7242 86.1423C57.4552 85.1815 58.4845 84.4378 59.8122 83.911C61.1402 83.3738 62.6327 83.1053 64.29 83.1053C65.906 83.1053 67.3522 83.3945 68.6285 83.973C69.9152 84.5515 70.9137 85.378 71.6237 86.4523C72.334 87.5163 72.6892 88.7353 72.6892 90.109H67.2852C67.2852 89.1898 67.0022 88.477 66.436 87.9708C65.8802 87.4645 65.1237 87.2115 64.1665 87.2115C63.1987 87.2115 62.432 87.4285 61.8657 87.8623C61.31 88.2858 61.032 88.828 61.032 89.4893C61.032 90.0678 61.341 90.5945 61.9585 91.0698C62.576 91.5345 63.662 92.02 65.2162 92.5263C66.7705 93.022 68.047 93.5593 69.0455 94.1378C71.4745 95.5425 72.6892 97.4795 72.6892 99.9483C72.6892 101.921 71.948 103.471 70.4657 104.597C68.9837 105.723 66.9507 106.286 64.367 106.286C62.5452 106.286 60.8932 105.961 59.411 105.31C57.939 104.649 56.8272 103.75 56.076 102.614C55.3347 101.467 54.9642 100.15 54.9642 98.6623H60.399C60.399 99.8708 60.7077 100.765 61.3255 101.343C61.9532 101.911 62.9672 102.195 64.367 102.195C65.2627 102.195 65.9677 102.004 66.4825 101.622C67.0072 101.229 67.2697 100.682 67.2697 99.9793Z" fill="white"/>
<path d="M75.4685 105.976V83.4153H82.7098C84.6963 83.4153 86.4823 83.8697 88.0673 84.7787C89.6525 85.6775 90.8878 86.9533 91.773 88.606C92.6685 90.2485 93.1213 92.0925 93.1318 94.1377V95.176C93.1318 97.2418 92.6943 99.096 91.8193 100.739C90.9545 102.371 89.7298 103.652 88.1445 104.581C86.5698 105.501 84.8095 105.965 82.864 105.976H75.4685ZM80.8878 87.6143V101.792H82.7715C84.3258 101.792 85.5198 101.239 86.3535 100.134C87.1873 99.0187 87.6043 97.3658 87.6043 95.176V94.1998C87.6043 92.02 87.1873 90.3775 86.3535 89.2722C85.5198 88.167 84.3053 87.6143 82.7098 87.6143H80.8878Z" fill="white"/>
<path fill-rule="evenodd" clip-rule="evenodd" d="M63.9535 57.4943C61.7287 57.492 59.508 57.6782 57.3145 58.0513L60.6195 52.313C61.7337 52.2375 62.848 52.1997 63.9535 52.1997C66.5532 52.2015 69.1487 52.41 71.7155 52.8235L58.9222 30.5548L37.6135 67.6338L34.568 62.3332L58.8732 20.0237L58.9222 20.1107L58.9712 20.0266L88.3047 71.086H82.2142L75.3585 59.1538C71.6587 58.0398 67.8157 57.4798 63.9535 57.4915V57.4943ZM90.1897 67.7207L61.7915 18.2859H67.8822L93.235 62.4202L90.1897 67.7207ZM62.0052 42.6785L50.3432 62.986C54.5172 61.7212 59.4275 61.1555 64.0602 61.1555C64.4357 61.1555 64.811 61.1555 65.1862 61.17C67.817 61.2325 70.4385 61.5062 73.026 61.988L76.9172 68.7623C72.7997 67.238 68.4482 66.4525 64.0602 66.4413C57.6672 66.4185 51.3692 67.998 45.7362 71.0368L45.823 70.883L45.7045 71.086H39.6137L58.98 37.378L62.0052 42.6785Z" fill="white"/>
</svg>
