<svg width="32" height="32" viewBox="0 0 32 32" fill="none" xmlns="http://www.w3.org/2000/svg">
<rect width="32" height="32" rx="16" fill="white"/>
<path d="M25.3976 15.4844C25.1282 15.4844 24.8587 15.5181 24.6229 15.6528C24.3198 15.8549 24.084 16.3264 24.084 16.7643C24.084 17.1348 24.4208 17.6064 24.7913 17.8085C25.8355 18.3474 26.947 17.1348 26.4081 16.1244C26.2397 15.7538 25.8018 15.5181 25.3976 15.4844Z" fill="#FF8500"/>
<path d="M16.9603 8.27664C17.3308 8.34401 17.8697 9.62396 17.9708 10.7018C18.0045 10.9376 17.9708 11.4428 17.9708 11.8134C17.9371 12.386 17.8697 12.5544 17.6676 12.8238C17.2298 13.4638 16.4214 13.868 15.3772 13.9354C15.074 13.9691 14.5688 14.0027 14.2993 14.0027C13.8615 13.9691 13.8278 13.9691 13.8951 13.8006C13.9288 13.7333 14.0299 13.4975 14.0972 13.2954C14.5351 11.9481 15.5119 9.79237 16.0172 9.11871C16.354 8.61347 16.7582 8.24296 16.9603 8.27664ZM16.6235 5.34622C16.4551 5.34622 16.253 5.3799 15.9498 5.48095C15.5119 5.61569 15.1077 5.85147 14.7372 6.15461C14.1983 6.55881 14.1309 6.59249 14.0972 6.42408C14.0636 6.15461 13.6257 5.7841 13.2215 5.75042C12.8173 5.68305 12.312 5.88515 12.1099 6.1883C12.0089 6.32303 11.7394 6.76091 11.47 7.19879C10.9984 8.00718 10.83 8.57979 10.9984 8.91662C11.0995 9.11871 11.0658 9.3545 10.7626 10.8029C10.2237 13.4301 9.34794 18.8531 9.34794 19.8973C9.31425 22.2551 9.34794 24.4781 9.38162 24.916C9.48267 25.5897 9.71845 26.0612 10.1563 26.3644C10.5942 26.6675 10.83 26.7349 11.3016 26.6002C11.7731 26.4991 12.0089 26.3307 12.2784 25.9602C12.5815 25.5223 12.6489 25.0508 12.6489 22.9961C12.6152 20.5036 12.952 16.5626 13.1541 16.3269C13.2215 16.2932 13.6594 16.2595 14.1646 16.3269C16.0509 16.4953 17.6003 16.1585 18.7792 15.2827C20.0591 14.3396 20.5981 13.2617 20.6991 11.4428C20.8002 9.05135 20.0254 6.92932 18.6444 5.85147C18.2066 5.54832 18.0718 5.51464 17.3982 5.41359C17.0613 5.34622 16.8256 5.31254 16.6235 5.34622Z" fill="#0C0600"/>
</svg>
