<svg width="24" height="24" fill="none" xmlns="http://www.w3.org/2000/svg"><circle cx="12" cy="12" r="12" fill="#E6007A"/><path d="M12 7.356c1.523 0 2.758-.751 2.758-1.678C14.758 4.751 13.523 4 12 4c-1.522 0-2.757.751-2.757 1.678 0 .927 1.235 1.678 2.757 1.678zM12 20c1.523 0 2.758-.751 2.758-1.678 0-.927-1.235-1.678-2.758-1.678-1.522 0-2.757.751-2.757 1.678C9.243 19.25 10.478 20 12 20zM8.158 9.68c.761-1.38.756-2.875-.011-3.34-.768-.463-2.007.28-2.768 1.66-.762 1.38-.757 2.874.01 3.338.768.464 2.008-.279 2.769-1.659zM18.62 16c.761-1.38.757-2.874-.01-3.338-.767-.463-2.006.28-2.768 1.66-.76 1.38-.756 2.874.01 3.338.767.463 2.006-.28 2.768-1.66zM8.148 17.66c.767-.464.772-1.959.01-3.339-.76-1.38-2-2.122-2.767-1.659-.768.464-.773 1.959-.011 3.339.761 1.38 2 2.122 2.768 1.659zm10.462-6.322c.768-.463.772-1.957.01-3.337-.76-1.38-2-2.123-2.766-1.66-.767.464-.772 1.958-.01 3.338.76 1.38 2 2.123 2.767 1.66z" fill="#fff"/></svg>