<svg width="64" height="64" fill="none" xmlns="http://www.w3.org/2000/svg"><path d="M32 0c17.675 0 32 14.328 32 32 0 17.675-14.325 32-32 32C14.328 64 0 49.673 0 32 0 14.328 14.328 0 32 0z" fill="#F5AC37"/><path d="M33.17 34.244h12.159c.259 0 .381 0 .4-.34.1-1.237.1-2.481 0-3.72 0-.24-.12-.34-.38-.34h-24.2c-.3 0-.38.1-.38.38v3.56c0 .46 0 .46.48.46h11.92zm11.201-8.56a.389.389 0 0 0 0-.279 7.901 7.901 0 0 0-.723-1.26 10.2 10.2 0 0 0-1.48-1.86 4.908 4.908 0 0 0-.92-.9 14.377 14.377 0 0 0-6-3.04 14.918 14.918 0 0 0-3.4-.36h-10.74c-.3 0-.34.12-.34.38v7.1c0 .299 0 .38.38.38h23.08s.2-.04.24-.16h-.098.001zm0 12.72a4.672 4.672 0 0 0-1.022 0h-22.18c-.299 0-.4 0-.4.4v6.941c0 .32 0 .4.4.4h10.24c.49.038.98.004 1.46-.099a15.243 15.243 0 0 0 4.34-.96 7.952 7.952 0 0 0 1.46-.68h.14c2.4-1.248 4.35-3.21 5.58-5.617 0 0 .14-.303-.018-.382v-.003zm-27.62 11.34V38.685c0-.26 0-.3-.32-.3h-4.34c-.241 0-.34 0-.34-.32v-3.8h4.64c.258 0 .36 0 .36-.34v-3.76c0-.24 0-.299-.32-.299h-4.34c-.241 0-.34 0-.34-.32v-3.519c0-.22 0-.28.32-.28h4.3c.299 0 .38 0 .38-.38v-10.78c0-.319 0-.4.4-.4H32.15c1.088.044 2.17.163 3.24.36a19.548 19.548 0 0 1 6.26 2.32 17.639 17.639 0 0 1 3.519 2.72 19.265 19.265 0 0 1 2.14 2.66c.629.96 1.152 1.988 1.562 3.06a.52.52 0 0 0 .598.42h3.58c.459 0 .459 0 .48.441v3.28c0 .32-.12.401-.442.401h-2.76c-.28 0-.36 0-.34.36.11 1.218.11 2.44 0 3.66 0 .339 0 .38.382.38h3.158c.14.18 0 .36 0 .54.02.233.02.467 0 .7v2.42c0 .34-.1.44-.4.44h-3.78a.5.5 0 0 0-.58.38 15.995 15.995 0 0 1-4.202 6.12 24.102 24.102 0 0 1-2.14 1.72c-.8.46-1.579.94-2.4 1.32a21.634 21.634 0 0 1-4.72 1.5 24.607 24.607 0 0 1-4.68.38h-13.88v-.02l.005-.005z" fill="#FEFEFD"/></svg>