<svg width="64" height="64" fill="none" xmlns="http://www.w3.org/2000/svg"><g clip-path="url(#a)"><path d="M63.928.072H.073v63.855h63.855V.072z" fill="#000" stroke="#000" stroke-miterlimit="10"/><path d="M54.219 18.488c-.755-.595-1.655-1.407-3.295-1.61-1.538-.204-3.105.827-4.165 1.509-1.06.682-3.062 2.685-3.89 3.294-.826.61-2.945 1.176-6.355 3.222-3.41 2.046-16.791 10.638-16.791 10.638l3.483.043-15.529 7.997H9.23l-2.235 1.698s1.974.522 3.628-.523v.479s18.49-7.285 22.06-5.399l-2.178.639c.189 0 3.701.232 3.701.232a4.983 4.983 0 0 0 2.235 3.6c2.119 1.392 2.162 2.162 2.162 2.162s-1.103.45-1.103 1.015c0 0 1.626-.493 3.135-.45.958.037 1.908.188 2.83.45 0 0-.116-.61-1.582-1.015-1.466-.407-2.917-2.003-3.628-2.874a4.063 4.063 0 0 1-.595-3.976c.508-1.32 2.278-2.047 5.936-3.933 4.31-2.235 5.297-3.89 5.906-5.181.61-1.292 1.51-3.86 2.017-5.065.639-1.553 1.423-2.38 2.076-2.873.653-.494 3.555-1.582 3.555-1.582s-2.22-1.93-2.931-2.497z" fill="#fff"/></g><defs><clipPath id="a"><path d="M0 32C0 14.327 14.327 0 32 0c17.673 0 32 14.327 32 32 0 17.673-14.327 32-32 32C14.327 64 0 49.673 0 32z" fill="#fff"/></clipPath></defs></svg>