<svg width="25" height="24" fill="none" xmlns="http://www.w3.org/2000/svg"><g clip-path="url(#a)"><circle cx="12.5" cy="12" r="12" fill="#4F68E8"/><path d="m12.777 3-.121.41v11.903l.12.12 5.526-3.265L12.777 3z" fill="#C0CBF6"/><path d="M12.775 3 7.25 12.168l5.525 3.266V3z" fill="#fff"/><path d="m12.777 16.478-.068.083v4.24l.068.199 5.528-7.786-5.528 3.264z" fill="#C0CBF6"/><path d="M12.775 21v-4.522L7.25 13.214 12.775 21z" fill="#fff"/><path d="m12.774 15.44 5.526-3.266-5.526-2.511v5.777z" fill="#8197EE"/><path d="m7.25 12.174 5.525 3.266V9.663L7.25 12.174z" fill="#C0CBF6"/></g><defs><clipPath id="a"><path d="M.5 12c0-6.627 5.373-12 12-12s12 5.373 12 12-5.373 12-12 12-12-5.373-12-12z" fill="#fff"/></clipPath></defs></svg>