<svg width="24" height="24" fill="none" xmlns="http://www.w3.org/2000/svg"><path d="M0 12C0 5.373 5.373 0 12 0s12 5.373 12 12-5.373 12-12 12S0 18.627 0 12z" fill="#020100"/><path d="M0 12C0 5.373 5.373 0 12 0s12 5.373 12 12-5.373 12-12 12S0 18.627 0 12z" fill="#1B0E00"/><path d="M19.048 11.614c-.202 0-.404.025-.581.126-.228.152-.404.505-.404.834 0 .278.252.631.53.783.783.404 1.617-.505 1.213-1.263-.127-.278-.455-.455-.758-.48z" fill="#FF8500"/><path d="M12.72 6.208c.278.05.682 1.01.758 1.819.025.176 0 .555 0 .833-.026.43-.076.556-.228.758-.328.48-.934.783-1.718.834-.227.025-.606.05-.808.05-.328-.025-.354-.025-.303-.151.025-.05.1-.228.151-.38.329-1.01 1.062-2.626 1.44-3.132.253-.379.556-.657.708-.631zm-.253-2.198a1.59 1.59 0 0 0-.505.101 2.699 2.699 0 0 0-.91.505c-.404.303-.454.329-.48.202-.025-.202-.353-.48-.656-.505-.304-.05-.682.101-.834.328-.076.102-.278.43-.48.758-.354.607-.48 1.036-.354 1.289.076.151.05.328-.177 1.414-.404 1.97-1.06 6.038-1.06 6.821-.026 1.769 0 3.436.025 3.764.076.505.252.86.58 1.086.33.228.506.278.86.177.353-.075.53-.202.732-.48.228-.328.278-.682.278-2.223-.025-1.87.228-4.825.38-5.002.05-.025.378-.05.757 0 1.415.127 2.577-.126 3.46-.783.96-.707 1.365-1.515 1.44-2.88.077-1.793-.504-3.385-1.54-4.193-.329-.228-.43-.253-.935-.329-.252-.05-.43-.075-.58-.05z" fill="#fff"/></svg>