<svg width="24" height="24" fill="none" xmlns="http://www.w3.org/2000/svg"><circle cx="12" cy="12" r="12" fill="url(#a)"/><path d="M10.611 7.332c-.17-.024-.178-.032-.097-.04.154-.024.511.008.763.065.585.138 1.113.495 1.674 1.12l.146.171.211-.032c.902-.146 1.828-.033 2.6.325.21.097.543.292.584.34a.84.84 0 0 1 .057.228c.057.382.032.666-.09.886-.064.122-.064.154-.024.26.033.08.13.138.22.138.194 0 .398-.309.495-.74l.04-.17.074.081c.414.463.739 1.105.788 1.56l.016.122-.073-.106a1.37 1.37 0 0 0-.39-.414c-.276-.187-.569-.244-1.34-.284-.699-.041-1.097-.098-1.487-.228-.666-.22-1.007-.504-1.795-1.551-.35-.463-.569-.715-.788-.926-.479-.463-.958-.707-1.584-.805z" fill="#FF007A"/><path d="M16.663 8.364c.016-.31.056-.512.146-.7a.561.561 0 0 1 .073-.137c.008 0-.008.057-.033.122-.065.178-.073.43-.032.715.057.365.081.414.47.812.18.187.39.422.472.52l.138.178-.138-.13c-.17-.162-.56-.47-.65-.511-.057-.033-.065-.033-.105.008-.033.032-.041.081-.041.317-.008.365-.057.592-.179.828-.065.122-.073.098-.016-.04.04-.106.049-.155.049-.504 0-.707-.081-.877-.577-1.162a6.068 6.068 0 0 0-.455-.235 1.807 1.807 0 0 1-.22-.106c.017-.016.496.122.683.203.284.114.333.122.366.114.024-.024.04-.09.049-.293zm-5.719 1.21c-.34-.471-.56-1.202-.512-1.747l.017-.17.081.016c.146.024.398.122.52.195.325.195.471.463.61 1.129.04.195.097.422.12.495.042.122.196.407.326.585.09.13.032.195-.17.179-.31-.033-.724-.317-.992-.682zm5.305 3.533c-1.609-.65-2.177-1.21-2.177-2.16 0-.138.008-.252.008-.252.008 0 .065.049.138.105.325.26.69.374 1.706.52.593.09.934.155 1.242.26.983.325 1.593.991 1.739 1.893.04.26.016.755-.049 1.015-.057.203-.22.577-.26.585-.008 0-.024-.04-.024-.106-.017-.34-.187-.666-.471-.918-.341-.292-.78-.511-1.852-.942zm-1.138.269a1.928 1.928 0 0 0-.081-.342l-.04-.121.072.089c.106.122.187.268.26.471.057.154.057.203.057.455 0 .244-.008.3-.057.439a1.47 1.47 0 0 1-.34.544c-.293.3-.675.463-1.22.536-.097.008-.373.032-.617.049-.609.032-1.015.097-1.38.227-.05.016-.098.032-.106.024-.016-.016.236-.162.439-.26.284-.138.576-.21 1.218-.324.317-.05.642-.114.723-.147.804-.251 1.202-.877 1.072-1.64z" fill="#FF007A"/><path d="M15.85 14.683c-.21-.463-.259-.901-.145-1.316.016-.04.032-.08.049-.08a.35.35 0 0 1 .113.056c.098.065.3.179.82.463.659.357 1.032.634 1.292.95.227.277.366.593.43.983.041.22.017.747-.04.967-.179.69-.585 1.243-1.178 1.56-.09.048-.162.08-.17.08a.648.648 0 0 1 .073-.178c.195-.414.219-.812.073-1.26-.09-.275-.276-.608-.65-1.169-.447-.65-.552-.82-.666-1.056zm-6.051 2.486c.601-.504 1.34-.861 2.023-.975.292-.049.78-.033 1.047.04.43.114.82.358 1.024.658.195.293.284.545.373 1.105.033.22.074.447.082.496.065.292.195.52.357.641.252.187.69.195 1.121.033.073-.025.138-.049.138-.04.016.015-.203.162-.35.235a1.15 1.15 0 0 1-.584.138c-.39 0-.723-.203-.99-.61a4.562 4.562 0 0 1-.269-.535c-.284-.658-.43-.853-.764-1.073-.292-.186-.666-.227-.95-.089-.373.179-.471.658-.211.95.105.122.3.22.463.244.3.04.56-.195.56-.495 0-.195-.073-.31-.268-.398-.26-.114-.544.016-.536.268 0 .105.049.17.155.219.064.032.064.032.016.024-.236-.049-.293-.34-.106-.528.228-.227.707-.13.87.187.064.13.072.39.016.552-.139.358-.528.545-.926.44-.268-.074-.382-.147-.707-.48-.569-.585-.788-.699-1.6-.82l-.155-.025.171-.162z" fill="#FF007A"/><path fill-rule="evenodd" clip-rule="evenodd" d="M5.527 4.1a866.114 866.114 0 0 1 4.954 6.067c.122.162.074.317-.13.43-.113.065-.349.13-.463.13a.586.586 0 0 1-.39-.17c-.073-.073-.39-.536-1.104-1.65A108.635 108.635 0 0 0 7.379 7.34c-.033-.016-.033-.016.958 1.755.625 1.113.829 1.51.829 1.56 0 .105-.033.162-.163.308-.22.244-.317.52-.39 1.097-.081.641-.3 1.096-.926 1.868-.365.455-.422.536-.512.723-.113.227-.146.357-.162.65a2.02 2.02 0 0 0 .106.795c.08.26.17.431.39.764.186.293.3.512.3.593 0 .065.016.065.309 0 .698-.162 1.275-.439 1.592-.78.195-.211.243-.325.243-.617 0-.187-.008-.228-.056-.341-.082-.179-.236-.325-.569-.553-.439-.3-.625-.544-.674-.869-.04-.276.008-.463.252-.974.251-.528.316-.748.357-1.284.024-.341.065-.48.162-.585.106-.113.195-.154.447-.186.414-.057.683-.163.894-.366a.764.764 0 0 0 .276-.593l.008-.187-.106-.114c-.381-.438-5.67-6.254-5.694-6.254-.008 0 .122.154.277.35zM8.02 15.65a.335.335 0 0 0-.105-.447c-.138-.09-.35-.049-.35.073 0 .033.017.065.065.081.073.041.082.082.025.17-.057.09-.057.171.016.228.114.09.268.041.35-.105zm3.29-4.273c-.195.057-.382.268-.439.48-.032.13-.016.365.041.438.09.114.17.146.398.146.447 0 .829-.195.87-.43.04-.195-.13-.463-.366-.585a.826.826 0 0 0-.504-.049zm.52.406c.065-.097.04-.203-.081-.276-.22-.138-.553-.024-.553.187 0 .106.171.22.334.22a.454.454 0 0 0 .3-.13z" fill="#FF007A"/><defs><linearGradient id="a" x1="22.125" y1="18" x2="3" y2="2.625" gradientUnits="userSpaceOnUse"><stop stop-color="#FFCAE2"/><stop offset="1" stop-color="#FDE9F2"/></linearGradient></defs></svg>