<svg width="24" height="24" fill="none" xmlns="http://www.w3.org/2000/svg"><g clip-path="url(#a)" stroke-width=".101" stroke-linecap="round" stroke-linejoin="round"><path d="M22.805 1 13.44 7.877l1.732-4.057L22.805 1z" fill="#E2761B" stroke="#E2761B"/><path d="m1.186 1 9.29 6.942L8.828 3.82 1.186 1zm18.25 15.941L16.94 20.72l5.337 1.452 1.534-5.147-4.377-.084zm-19.239.084 1.525 5.147 5.336-1.452-2.494-3.779-4.367.084z" fill="#E4761B" stroke="#E4761B"/><path d="M6.757 10.557 5.27 12.781l5.299.233-.188-5.63-3.624 3.173zm10.476.001-3.671-3.239-.122 5.696 5.29-.233-1.497-2.224zM7.059 20.72l3.18-1.536-2.747-2.122-.433 3.658zm6.691-1.536 3.191 1.536-.442-3.657-2.748 2.121z" fill="#E4761B" stroke="#E4761B"/><path d="m16.941 20.72-3.19-1.535.254 2.056-.029.866 2.965-1.387zm-9.882 0 2.964 1.387-.018-.866.235-2.056-3.181 1.535z" fill="#D7C1B3" stroke="#D7C1B3"/><path d="m10.07 15.704-2.654-.772 1.873-.847.781 1.62zm3.85 0 .78-1.619 1.883.847-2.663.772z" fill="#233447" stroke="#233447"/><path d="m7.059 20.72.451-3.779-2.946.084L7.06 20.72zm9.431-3.779.452 3.779 2.494-3.695-2.946-.084zm2.24-4.16-5.29.233.49 2.69.78-1.62 1.883.847 2.136-2.15zm-11.314 2.15 1.882-.847.772 1.62.499-2.69-5.299-.233 2.146 2.15z" fill="#CD6116" stroke="#CD6116"/><path d="m5.27 12.781 2.221 4.281-.075-2.131-2.146-2.15zm11.323 2.15-.094 2.131 2.23-4.28-2.136 2.149zm-6.023-1.916-.499 2.69.621 3.173.141-4.179-.263-1.684zm2.87 0-.254 1.675.113 4.188.63-3.174-.489-2.69z" fill="#E4751F" stroke="#E4751F"/><path d="m13.93 15.704-.631 3.174.451.307 2.749-2.122.094-2.131-2.664.772zm-6.514-.772.076 2.13 2.748 2.123.452-.307-.622-3.174-2.654-.772z" fill="#F6851B" stroke="#F6851B"/><path d="m13.976 22.106.028-.865-.235-.205h-3.548l-.216.205.018.865L7.06 20.72l1.035.837L10.193 23h3.604l2.109-1.443 1.035-.837-2.965 1.386z" fill="#C0AD9E" stroke="#C0AD9E"/><path d="m13.75 19.184-.451-.307h-2.607l-.452.307-.236 2.057.217-.205h3.548l.235.205-.254-2.057z" fill="#161616" stroke="#161616"/><path d="m23.2 8.324.8-3.797L22.805 1 13.75 7.645l3.482 2.912 4.922 1.424 1.092-1.256-.47-.335.752-.68-.583-.446.753-.568-.5-.372zM0 4.527l.8 3.797-.508.372.753.568-.574.447.753.679-.471.335 1.082 1.256 4.923-1.424 3.482-2.912L1.186 1 0 4.527z" fill="#763D16" stroke="#763D16"/><path d="m22.155 11.981-4.922-1.423 1.497 2.224-2.231 4.28 2.937-.037h4.376l-1.657-5.044zM6.757 10.558 1.835 11.98.197 17.025h4.367l2.927.038-2.221-4.281 1.487-2.224zm6.683 2.457.31-5.37 1.431-3.825H8.828l1.412 3.825.33 5.37.112 1.694.01 4.169h2.607l.019-4.17.122-1.693z" fill="#F6851B" stroke="#F6851B"/></g><defs><clipPath id="a"><path fill="#fff" d="M0 0h24v24H0z"/></clipPath></defs></svg>