<svg width="24" height="24" viewBox="0 0 24 24" fill="none" xmlns="http://www.w3.org/2000/svg">
<g clip-path="url(#clip0_204_32979)">
<circle cx="12" cy="12" r="12" fill="#E6007A"/>
<path d="M12.0004 7.35614C13.5231 7.35614 14.7576 6.60484 14.7576 5.67807C14.7576 4.7513 13.5231 4 12.0004 4C10.4776 4 9.24316 4.7513 9.24316 5.67807C9.24316 6.60484 10.4776 7.35614 12.0004 7.35614Z" fill="white"/>
<path d="M12.0004 19.9997C13.5231 19.9997 14.7576 19.2484 14.7576 18.3216C14.7576 17.3949 13.5231 16.6436 12.0004 16.6436C10.4776 16.6436 9.24316 17.3949 9.24316 18.3216C9.24316 19.2484 10.4776 19.9997 12.0004 19.9997Z" fill="white"/>
<path d="M8.1579 9.6786C8.91928 8.29863 8.91434 6.80404 8.14686 6.34035C7.37938 5.87665 6.13999 6.61943 5.37861 7.9994C4.61722 9.37936 4.62217 10.8739 5.38965 11.3376C6.15713 11.8013 7.39652 11.0586 8.1579 9.6786Z" fill="white"/>
<path d="M18.6199 15.9997C19.3813 14.6198 19.3768 13.1254 18.6098 12.662C17.8428 12.1987 16.6039 12.9417 15.8425 14.3217C15.0811 15.7016 15.0856 17.196 15.8526 17.6593C16.6195 18.1227 17.8585 17.3797 18.6199 15.9997Z" fill="white"/>
<path d="M8.14784 17.6597C8.91532 17.196 8.92026 15.7014 8.15888 14.3214C7.39749 12.9414 6.1581 12.1987 5.39062 12.6624C4.62314 13.1261 4.6182 14.6206 5.37958 16.0006C6.14097 17.3806 7.38036 18.1234 8.14784 17.6597Z" fill="white"/>
<path d="M18.6108 11.3389C19.3777 10.8755 19.3823 9.38122 18.6209 8.00125C17.8595 6.62128 16.6205 5.87824 15.8536 6.34163C15.0866 6.80502 15.0821 8.29935 15.8435 9.67932C16.6048 11.0593 17.8438 11.8023 18.6108 11.3389Z" fill="white"/>
</g>
<defs>
<clipPath id="clip0_204_32979">
<rect width="24" height="24" rx="12" fill="white"/>
</clipPath>
</defs>
</svg>
