<svg width="126" height="48" fill="none" xmlns="http://www.w3.org/2000/svg"><path d="M17.156 32.736a9.53 9.53 0 0 1-3.216 2.4c-1.216.576-2.544.864-3.984.864a9.333 9.333 0 0 1-3.744-.768 9.946 9.946 0 0 1-3.024-2.064 9.946 9.946 0 0 1-2.064-3.024A9.333 9.333 0 0 1 .356 26.4c0-1.312.256-2.544.768-3.696a9.788 9.788 0 0 1 2.064-3.072 9.946 9.946 0 0 1 3.024-2.064 9.333 9.333 0 0 1 3.744-.768c1.44 0 2.768.304 3.984.912a9.53 9.53 0 0 1 3.216 2.4V16.8h2.4V36h-2.4v-3.264zM2.756 26.4c0 .992.192 1.936.576 2.832a7.415 7.415 0 0 0 1.536 2.256 7.415 7.415 0 0 0 2.256 1.536c.896.384 1.84.576 2.832.576.96 0 1.872-.176 2.736-.528a7.161 7.161 0 0 0 2.256-1.44 7.6 7.6 0 0 0 1.536-2.208c.416-.864.64-1.776.672-2.736v-.576a6.416 6.416 0 0 0-.672-2.688 6.982 6.982 0 0 0-1.536-2.16 6.76 6.76 0 0 0-2.256-1.488 6.662 6.662 0 0 0-2.736-.576c-.992 0-1.936.192-2.832.576a7.415 7.415 0 0 0-2.256 1.536 7.264 7.264 0 0 0-1.536 2.304 6.777 6.777 0 0 0-.576 2.784zm36.479 0c0-.992-.192-1.92-.576-2.784a7.264 7.264 0 0 0-1.536-2.304 7.264 7.264 0 0 0-2.304-1.536 6.777 6.777 0 0 0-2.784-.576c-.96 0-1.872.192-2.736.576a7.31 7.31 0 0 0-2.304 1.488 6.982 6.982 0 0 0-2.16 4.848V36h-2.4V16.8h2.4v3.312a9.05 9.05 0 0 1 3.168-2.4 9.083 9.083 0 0 1 4.032-.912c1.312 0 2.544.256 3.696.768a9.788 9.788 0 0 1 3.072 2.064 9.788 9.788 0 0 1 2.064 3.072 8.997 8.997 0 0 1 .768 3.696V36h-2.4v-9.6zm9.598 16.896a6.309 6.309 0 0 0 2.304 1.68c.928.416 1.92.624 2.976.624.992 0 1.92-.192 2.784-.576a7.264 7.264 0 0 0 2.304-1.536 7.264 7.264 0 0 0 1.536-2.304 6.777 6.777 0 0 0 .576-2.784v-5.664a9.53 9.53 0 0 1-3.216 2.4c-1.216.576-2.544.864-3.984.864a9.333 9.333 0 0 1-3.744-.768 9.946 9.946 0 0 1-3.024-2.064 9.946 9.946 0 0 1-2.064-3.024 9.333 9.333 0 0 1-.768-3.744c0-1.312.256-2.544.768-3.696a9.788 9.788 0 0 1 2.064-3.072 9.946 9.946 0 0 1 3.024-2.064 9.333 9.333 0 0 1 3.744-.768c1.44 0 2.768.304 3.984.912a9.53 9.53 0 0 1 3.216 2.4V16.8h2.4v21.6a8.997 8.997 0 0 1-.768 3.696 9.788 9.788 0 0 1-2.064 3.072 9.788 9.788 0 0 1-3.072 2.064 8.997 8.997 0 0 1-3.696.768c-1.344 0-2.592-.256-3.744-.768a9.277 9.277 0 0 1-3.024-2.016l1.488-1.92zM46.913 26.4c0 .992.192 1.936.576 2.832a7.415 7.415 0 0 0 1.536 2.256 7.415 7.415 0 0 0 2.256 1.536c.896.384 1.84.576 2.832.576.992 0 1.92-.192 2.784-.576a7.264 7.264 0 0 0 2.304-1.536 7.415 7.415 0 0 0 1.536-2.256c.384-.896.576-1.84.576-2.832 0-.992-.192-1.92-.576-2.784a7.264 7.264 0 0 0-1.536-2.304 7.264 7.264 0 0 0-2.304-1.536 6.777 6.777 0 0 0-2.784-.576c-.992 0-1.936.192-2.832.576a7.415 7.415 0 0 0-2.256 1.536 7.264 7.264 0 0 0-1.536 2.304 6.777 6.777 0 0 0-.576 2.784zm22.077 0c0 .992.193 1.936.577 2.832a7.415 7.415 0 0 0 1.536 2.256 7.415 7.415 0 0 0 2.256 1.536c.896.384 1.84.576 2.832.576.96 0 1.872-.176 2.736-.528a7.161 7.161 0 0 0 2.256-1.44 7.6 7.6 0 0 0 1.536-2.208c.416-.864.64-1.776.672-2.736V16.8h2.4V36h-2.4v-3.312a9.579 9.579 0 0 1-3.168 2.448c-1.248.576-2.592.864-4.032.864a9.333 9.333 0 0 1-3.744-.768 9.946 9.946 0 0 1-3.024-2.064 9.946 9.946 0 0 1-2.064-3.024 9.333 9.333 0 0 1-.768-3.744v-9.6h2.4v9.6zM88.669 0h2.4v36h-2.4V0zm22.097 32.736a9.53 9.53 0 0 1-3.216 2.4c-1.216.576-2.544.864-3.984.864a9.335 9.335 0 0 1-3.744-.768 9.946 9.946 0 0 1-3.024-2.064 9.946 9.946 0 0 1-2.064-3.024 9.333 9.333 0 0 1-.768-3.744c0-1.312.256-2.544.768-3.696a9.788 9.788 0 0 1 2.064-3.072 9.946 9.946 0 0 1 3.024-2.064 9.335 9.335 0 0 1 3.744-.768c1.44 0 2.768.304 3.984.912a9.53 9.53 0 0 1 3.216 2.4V16.8h2.4V36h-2.4v-3.264zm-14.4-6.336c0 .992.192 1.936.576 2.832a7.415 7.415 0 0 0 1.536 2.256 7.414 7.414 0 0 0 2.256 1.536c.896.384 1.84.576 2.832.576.96 0 1.872-.176 2.736-.528a7.161 7.161 0 0 0 2.256-1.44 7.6 7.6 0 0 0 1.536-2.208c.416-.864.64-1.776.672-2.736v-.576a6.416 6.416 0 0 0-.672-2.688 6.982 6.982 0 0 0-1.536-2.16 6.76 6.76 0 0 0-2.256-1.488 6.662 6.662 0 0 0-2.736-.576c-.992 0-1.936.192-2.832.576a7.414 7.414 0 0 0-2.256 1.536 7.264 7.264 0 0 0-1.536 2.304 6.777 6.777 0 0 0-.576 2.784zm19.678-9.6h2.4v3.312a9.05 9.05 0 0 1 3.168-2.4 9.083 9.083 0 0 1 4.032-.912v2.4c-.96 0-1.872.192-2.736.576a7.31 7.31 0 0 0-2.304 1.488 6.982 6.982 0 0 0-2.16 4.848V36h-2.4V16.8z" style="mix-blend-mode:luminosity" fill="#fff"/></svg>