<svg width="130" height="40" viewBox="0 0 130 40" fill="none" xmlns="http://www.w3.org/2000/svg">
<path d="M20.1372 16.3512C20.1372 6.47462 12.1721 0.713306 3.14118 0.713306H0V39.1221H4.26304V31.3855C13.1818 30.9465 20.1372 25.3498 20.1372 16.3512ZM4.26304 27.1056V4.99314C11.3868 5.04801 15.8742 9.65707 15.8742 16.3512C15.8742 22.716 11.4429 26.7215 4.26304 27.1056Z" fill="white"/>
<path d="M43.1606 39.1221H47.4237L37.8879 0.548699H34.1297L24.6501 39.1221H28.9131L30.7081 31.4952H41.3657L43.1606 39.1221ZM31.6616 27.3251L36.0369 8.88889L40.356 27.3251H31.6616Z" fill="white"/>
<path d="M75.4883 29.3004C75.4883 24.9108 73.7495 21.6187 65.8404 16.406C67.411 15.4733 69.6547 13.059 69.6547 9.21811C69.6547 3.95062 65.7843 0.713306 59.5581 0.713306H51.9295V39.1221H65.6721C71.3375 39.1221 75.5444 35.0617 75.4883 29.3004ZM60.0068 4.11523C63.9894 4.11523 65.7843 6.96845 65.7843 9.16324C65.7843 11.6872 64.1576 13.5528 62.5871 14.2661L55.6877 9.87654V4.11523H60.0068ZM71.5619 29.3004C71.5619 33.1413 68.4207 35.6104 65.2234 35.6104H55.6877V14.2661L63.9894 19.4239C68.7572 22.4417 71.618 24.9108 71.5619 29.3004Z" fill="white"/>
<path d="M84.2388 0.713306H79.9758V39.1221H97.9254V34.952H84.2388V0.713306Z" fill="white"/>
<path d="M115.953 40C125.601 40 129.471 34.3484 129.471 20.3018C129.471 5.76132 125.601 0 115.953 0C106.249 0 102.379 5.76132 102.379 20.3018C102.379 34.3484 106.249 40 115.953 40ZM115.953 36.1591C109.334 36.1591 106.698 31.7147 106.698 20.5761C106.698 8.61454 109.334 3.78601 115.953 3.78601C122.572 3.78601 125.208 8.61454 125.208 20.5761C125.208 31.7147 122.572 36.1591 115.953 36.1591Z" fill="white"/>
</svg>
