<svg width="24" height="24" viewBox="0 0 24 24" fill="none" xmlns="http://www.w3.org/2000/svg"><g clip-path="url(#wra8mt950a)"><path d="M23.973.027H.027v23.946h23.946V.027z" fill="#000" stroke="#000" stroke-miterlimit="10"/><path d="M20.332 6.933c-.283-.223-.62-.528-1.236-.604-.576-.076-1.164.31-1.561.566-.398.256-1.149 1.007-1.459 1.235-.31.229-1.105.441-2.384 1.209-1.278.767-6.296 3.989-6.296 3.989l1.306.016-5.823 2.999h.582l-.838.637s.74.195 1.36-.197v.18s6.934-2.732 8.273-2.024l-.817.24c.071 0 1.388.086 1.388.086a1.87 1.87 0 0 0 .838 1.35c.795.522.811.81.811.81s-.414.17-.414.382c0 0 .61-.185 1.176-.169.36.014.716.07 1.061.169 0 0-.043-.229-.593-.381-.55-.153-1.094-.751-1.36-1.078a1.524 1.524 0 0 1-.224-1.491c.19-.495.855-.767 2.226-1.475 1.617-.838 1.987-1.458 2.215-1.943.229-.484.566-1.447.757-1.899.24-.582.533-.893.778-1.078.245-.185 1.333-.593 1.333-.593s-.832-.724-1.1-.936z" fill="#fff"/></g><defs><clipPath id="wra8mt950a"><path d="M0 12C0 5.373 5.373 0 12 0s12 5.373 12 12-5.373 12-12 12S0 18.627 0 12z" fill="#fff"/></clipPath></defs></svg>
