<svg width="32" height="32" viewBox="0 0 32 32" fill="none" xmlns="http://www.w3.org/2000/svg">
<g clip-path="url(#clip0_335_51)">
<path d="M31.9883 2.19613V29.8545C31.9883 31.0394 30.9663 31.9998 29.7055 31.9998H2.27104C1.01023 31.9998 -0.0117188 31.0394 -0.0117188 29.8545V2.19613C-0.0117188 1.01121 1.01023 0.0507812 2.27104 0.0507812H29.7055C30.0257 0.0507812 30.3306 0.113272 30.6068 0.225274C31.1745 0.454567 31.6231 0.893443 31.842 1.43903C31.9366 1.67458 31.9883 1.92934 31.9883 2.19613Z" fill="#F1E0D2"/>
<path d="M31.842 1.43904C31.6231 0.893931 31.1745 0.454574 30.6068 0.225282C30.5587 0.456497 30.4707 0.688674 30.3091 0.874703C30.4712 0.688674 30.5592 0.456497 30.6068 0.225282C30.3301 0.113279 30.0252 0.0512695 29.705 0.0512695H16.5778C16.6407 0.145967 16.6724 0.24451 16.6294 0.355551C16.6034 0.454574 16.3665 0.602629 16.498 0.726168C16.5507 0.800195 16.6821 0.77568 16.7875 0.77568C16.6821 0.77568 16.5507 0.800195 16.498 0.726168C16.3665 0.602629 16.6034 0.454094 16.6294 0.355551C16.6724 0.24451 16.6407 0.145967 16.5778 0.0512695H16.255C14.7334 0.827114 13.6081 2.12884 13.2731 3.85166C12.3739 8.47645 17.3972 10.5463 18.6933 11.0078C24.5262 13.0839 30.1735 9.9517 31.9888 6.1816V2.19614C31.9888 1.92935 31.9371 1.6741 31.8425 1.43904H31.842Z" fill="#151515"/>
<path d="M28.8628 9.95892C29.4924 9.80077 30.1988 10.0108 30.7046 10.3613C31.3118 10.7819 31.4851 11.3847 31.5204 12.0552C31.5915 13.4002 31.6115 14.7491 31.4872 16.0902C31.4391 16.6079 31.2299 17.1997 30.7593 17.5414C30.3108 17.8673 29.6873 17.8856 29.185 17.6525C28.5436 17.3544 28.4792 16.829 28.5354 16.2262C28.6132 15.3903 28.7375 14.5592 28.8541 13.7271C28.9395 13.119 29.0489 12.4513 28.3497 12.1086C27.9211 11.8985 27.5922 12.0211 27.3421 12.3129C26.8025 12.9416 26.6276 14.3539 26.6015 14.8995C26.5289 16.4228 26.6046 17.9515 26.8265 19.4628C26.9099 20.029 26.2521 21.7302 25.5427 20.6487C24.8809 19.6402 25.5146 18.5586 25.464 17.5011C25.4481 17.1684 25.4839 15.5802 24.8471 15.622C24.1152 15.6701 24.5111 17.1006 24.5136 17.4727V17.4741C24.5213 18.6124 24.4891 19.7512 24.4169 20.8876C24.3811 21.449 24.1684 21.8466 23.5495 21.6038C22.9408 21.3649 22.7879 20.4165 22.8058 19.9353C22.8329 19.2167 22.9321 18.5028 23.0088 17.788C23.0774 17.1477 23.1203 16.469 22.8047 15.8926C22.0375 14.4919 20.7358 15.3946 20.6284 16.5872C20.5757 17.1732 20.722 17.7568 20.811 18.3389C20.9383 19.1734 20.945 20.0165 20.9286 20.8573C20.9194 21.3211 21.058 21.6086 20.5419 21.6922C20.3113 21.7297 19.9389 21.6245 19.7619 21.4875C19.2571 21.0967 19.4141 20.2266 19.3988 19.7002C19.3809 19.0936 19.7798 17.5472 19.3732 17.0415C18.7671 16.2873 18.6152 17.5881 18.6321 17.9269C18.6694 18.6586 18.8535 19.383 18.8842 20.1122V20.1136C18.8985 20.4679 18.8346 20.8904 18.4873 21.05C17.3805 21.5591 17.492 19.7517 17.4756 19.2849C17.4388 18.2346 17.4316 17.1833 17.4244 16.1315C17.4168 15.0259 17.3518 13.8405 17.8648 12.7974C18.1988 12.1182 18.608 11.688 18.5727 10.9362C18.54 10.2425 18.4249 9.50177 17.8377 9.00089C17.2853 8.53028 16.5012 8.36781 16.1202 7.75492C15.7284 7.12473 15.4435 6.10661 15.9018 5.45334C16.2583 4.94476 16.9365 4.66836 17.4439 4.30736C18.7686 3.36519 20.4212 2.84556 22.0933 2.68837C22.9388 2.60906 23.8062 2.61963 24.622 2.83595C25.4384 3.05178 26.203 3.48777 26.6757 4.13095C26.8813 4.41071 27.0322 4.74576 26.9733 5.07792C26.8961 5.51728 26.4839 5.8355 26.088 6.09652C24.8231 6.93149 23.4369 7.61408 21.9772 8.12073L21.3792 8.02219C21.0294 8.09189 20.7215 8.31541 20.5685 8.61008C20.4795 8.78169 20.4422 8.9706 20.4079 9.15807C20.2693 9.91661 20.0714 11.3342 20.5864 12.0177C21.1322 12.7422 22.7229 12.6725 23.5653 12.6691C24.198 12.6667 24.8451 12.6619 25.4414 12.4682C26.7974 12.0278 27.494 10.3021 28.8617 9.95795" fill="#151515"/>
<path d="M23.0269 6.27412C22.0182 6.66252 20.6914 6.69713 19.6209 6.60387C18.6624 6.52023 17.6906 5.88571 16.8819 5.43626C16.8236 5.40405 16.7597 5.3632 16.751 5.30022C16.7438 5.24879 16.7776 5.20072 16.8113 5.15938C17.5576 4.23644 18.8874 3.90476 20.1211 3.89995C20.9472 3.89707 21.7727 4.0158 22.5614 4.24654C23.3501 4.47727 23.9731 4.895 24.7071 5.18245C24.4948 5.58384 24.0325 5.80592 23.609 6.01262C23.4182 6.10539 23.2269 6.19769 23.0279 6.27412H23.0269Z" fill="#DBB5D6"/>
<path d="M27.2271 5.09257C27.0256 4.80271 26.665 4.52006 26.5776 4.5489C26.7167 4.50323 26.8553 4.45709 26.9929 4.40998L27.2773 4.31288L27.0706 3.77834L26.7862 3.87544C26.5371 3.96053 26.2845 4.04321 26.0298 4.12396C25.6078 3.82209 25.1485 3.54761 24.6651 3.30774C24.7572 3.20727 24.8467 3.10392 24.9311 2.99577L25.1106 2.76696L24.6237 2.42951L24.4442 2.65832C24.3378 2.79387 24.2222 2.92366 24.1004 3.04912C23.7787 2.91309 23.4493 2.79291 23.1158 2.69052C22.8391 2.60592 22.5624 2.5343 22.2867 2.47565C22.3558 2.31318 22.4192 2.14878 22.477 1.9815L22.5706 1.71134L21.9952 1.53541L21.9016 1.80556C21.8356 1.99592 21.7614 2.18339 21.6801 2.36702C20.9538 2.26222 20.2433 2.25069 19.5738 2.33192L19.5973 1.28497L18.9922 1.27295L18.9662 2.43335C18.738 2.48286 18.5155 2.54343 18.3012 2.6165C17.8409 2.77272 17.4118 2.99192 17.0077 3.24669C16.7801 2.99913 16.5811 2.73475 16.4159 2.45691L16.2681 2.20887L15.7397 2.48623L15.8875 2.73427C16.0645 3.03134 16.2752 3.31495 16.5156 3.58126C16.1499 3.84804 15.8047 4.13742 15.4732 4.42776C15.2144 4.65417 14.9623 4.90317 14.9669 5.23341C14.971 5.54971 15.2098 5.7915 15.4671 6.00589C15.8072 6.2895 16.2231 6.55389 16.7755 6.83894C18.1953 7.57152 19.8306 7.95416 21.4893 7.95416C21.942 7.95416 22.3967 7.9258 22.8488 7.86811C23.1808 7.82581 24.883 7.49701 24.6846 7.00334C24.458 6.439 23.0974 7.08698 22.7424 7.13313C20.7998 7.38117 18.8153 7.04564 17.1555 6.18856C16.6563 5.9309 16.286 5.69632 15.9909 5.45021C15.8364 5.32138 15.7822 5.2536 15.7632 5.2238C15.7837 5.19063 15.8425 5.11804 16.0118 4.96951C16.3356 4.6859 16.687 4.38787 17.068 4.11531C17.3268 4.33643 17.6082 4.54073 17.9099 4.72339L18.1641 4.8777L18.4925 4.39988L18.2383 4.24558C18.0041 4.10329 17.7831 3.94755 17.5775 3.77978C17.8895 3.59327 18.2204 3.43128 18.5703 3.31255C18.6951 3.27025 18.8219 3.23275 18.9503 3.20006L18.937 3.80334C18.935 3.899 18.9324 4.00763 18.9022 4.07157L18.78 4.33162L19.3334 4.5614L19.4556 4.30134C19.5349 4.1331 19.5385 3.95668 19.5421 3.81536L19.5585 3.08037C20.1323 2.99913 20.7272 3.00106 21.3215 3.07172C21.1814 3.31303 21.0274 3.54617 20.8597 3.77113L20.6863 4.00379L21.1819 4.33018L21.3553 4.09752C21.5757 3.80142 21.7742 3.49185 21.9502 3.17074C22.4734 3.27361 22.9905 3.42599 23.4877 3.61731C23.3823 3.70816 23.2759 3.79805 23.1706 3.88698C22.8984 4.11675 22.59 4.37681 22.2509 4.46622L21.9599 4.54313L22.1241 5.09065L22.4151 5.01373C22.8898 4.88827 23.2698 4.56765 23.5746 4.30999C23.7444 4.16675 23.9168 4.02109 24.0861 3.87064C24.4355 4.03263 24.771 4.21289 25.0866 4.40757C24.8477 4.47631 24.6073 4.54361 24.3664 4.60803C24.1567 4.66427 23.9675 4.71041 23.7818 4.71089H23.4795L23.481 5.28004H23.7833C24.0462 5.27908 24.2871 5.21995 24.5321 5.15458C24.9239 5.04979 25.3137 4.93875 25.6998 4.8229C26.0344 5.07142 26.6972 5.95734 27.2635 5.61076C27.4348 5.50597 27.3714 5.2959 27.2282 5.09016L27.2271 5.09257Z" fill="#5C57A2"/>
<path d="M21.2437 6.07797C20.6233 6.99562 18.5211 6.65 18.5672 5.44297C18.6009 4.55271 19.0219 3.74707 20.0392 3.79129C20.3374 3.80427 20.6468 3.85474 20.8867 4.02154C21.298 4.30708 21.3946 4.84257 21.4033 5.32279C21.4079 5.58333 21.3926 5.85781 21.2437 6.07797Z" fill="#0D0F1A"/>
<path fill-rule="evenodd" clip-rule="evenodd" d="M19.2501 5.06746C19.2869 5.0242 19.3232 4.98478 19.3595 4.94777C19.3959 4.91027 19.4332 4.87518 19.4726 4.84153C19.5519 4.77568 19.6444 4.71607 19.7529 4.68675C19.8066 4.66608 19.8649 4.66367 19.9186 4.67185C19.9728 4.68002 20.0235 4.69828 20.0705 4.71944C20.1181 4.74059 20.1631 4.76318 20.2122 4.78433C20.2618 4.80548 20.3155 4.82423 20.3846 4.84586C20.3846 4.92373 20.3907 4.98142 20.4142 5.03333C20.4372 5.08573 20.4807 5.13283 20.5441 5.20254C20.5319 5.25205 20.5078 5.29627 20.4935 5.3405C20.4787 5.38568 20.4746 5.43087 20.4848 5.50249C20.4388 5.55441 20.3779 5.58854 20.3211 5.6193C20.2623 5.65055 20.2101 5.67939 20.1401 5.73467C20.1089 5.72025 20.0797 5.71592 20.0501 5.714C20.0352 5.714 20.0199 5.71352 20.0045 5.71352C19.9892 5.714 19.9733 5.71352 19.9575 5.71304C19.9467 5.70006 19.937 5.6866 19.9247 5.67891C19.9186 5.67506 19.912 5.67314 19.9038 5.67314C19.8956 5.67314 19.8864 5.6741 19.8746 5.67843C19.849 5.67698 19.8276 5.66497 19.8132 5.64862C19.7999 5.62988 19.7928 5.60728 19.7994 5.577C19.7871 5.577 19.7759 5.57604 19.7646 5.57411C19.7544 5.57171 19.7447 5.56787 19.736 5.56306C19.7176 5.55441 19.7058 5.54143 19.6956 5.52749C19.693 5.52412 19.691 5.52028 19.6884 5.51691C19.6869 5.51307 19.6849 5.50874 19.6838 5.50489C19.6808 5.49672 19.6787 5.48855 19.6767 5.48038C19.6731 5.46404 19.6746 5.44721 19.6751 5.43135C19.6767 5.41548 19.6808 5.4001 19.6823 5.3852C19.6859 5.3703 19.6884 5.35588 19.6889 5.3405C19.6925 5.31021 19.6869 5.27752 19.6736 5.22945C19.7022 5.22561 19.7242 5.22032 19.7432 5.21359C19.7524 5.21023 19.76 5.20638 19.7672 5.20157C19.7749 5.19773 19.7815 5.19292 19.7871 5.18763C19.8107 5.16696 19.8281 5.14005 19.8526 5.11361C19.8654 5.10159 19.8782 5.08765 19.8951 5.07948C19.9033 5.07515 19.9109 5.07034 19.9201 5.06794C19.9288 5.06554 19.938 5.0641 19.9467 5.06313C19.9646 5.06121 19.983 5.06842 19.9979 5.07804C20.0127 5.09005 20.0245 5.10832 20.0301 5.13187C19.9958 5.13908 19.9692 5.14581 19.9432 5.15831C19.9176 5.17081 19.8951 5.19148 19.8823 5.21888C19.8715 5.21648 19.8623 5.21744 19.8547 5.22032C19.8475 5.22321 19.8424 5.22897 19.8383 5.2357C19.8337 5.24195 19.8316 5.24964 19.8306 5.25782C19.8296 5.26599 19.8281 5.27368 19.8286 5.28233C19.8286 5.2905 19.8286 5.29819 19.8286 5.30541C19.8286 5.31262 19.8276 5.31935 19.8245 5.32511C19.8209 5.33088 19.8168 5.33617 19.8097 5.34098C19.8025 5.34578 19.7923 5.35011 19.7774 5.35444C19.7918 5.36501 19.802 5.37318 19.8091 5.37991C19.8163 5.38712 19.8224 5.39241 19.825 5.3977C19.827 5.40347 19.8286 5.40827 19.8291 5.41356C19.8296 5.41885 19.827 5.42462 19.827 5.43039C19.826 5.44144 19.8224 5.4549 19.8291 5.46644C19.8332 5.47894 19.8465 5.48711 19.8669 5.48759C19.8777 5.48855 19.8859 5.49047 19.8925 5.49336C19.9002 5.49576 19.9063 5.49913 19.9114 5.50393C19.9232 5.5121 19.9324 5.5246 19.9447 5.53518C19.9677 5.55729 20.003 5.57748 20.0424 5.55489C20.1038 5.5347 20.1477 5.53518 20.2178 5.54239C20.2234 5.53662 20.2275 5.52989 20.2327 5.52364C20.2373 5.51739 20.2424 5.51307 20.2465 5.50634C20.2511 5.50009 20.2557 5.49432 20.2603 5.48855L20.2725 5.47028C20.2874 5.44577 20.3007 5.41933 20.3002 5.38857C20.3605 5.35876 20.3861 5.28858 20.3585 5.22657C20.3293 5.19052 20.3365 5.15879 20.337 5.12274C20.338 5.08765 20.3324 5.04775 20.2874 5.029C20.3027 4.98718 20.2628 4.96844 20.2275 4.9569C20.1907 4.9444 20.1616 4.93575 20.1667 4.87999C20.1293 4.87085 20.0966 4.86076 20.0634 4.85307C20.0301 4.8449 19.9958 4.84153 19.9611 4.8473C19.9442 4.79394 19.9027 4.80067 19.869 4.81654C19.8337 4.83288 19.8071 4.85403 19.7703 4.82759C19.737 4.8622 19.7012 4.8622 19.6613 4.86989C19.6225 4.87662 19.58 4.8896 19.5652 4.93527C19.5181 4.92854 19.5023 4.96844 19.4946 5.00401C19.4849 5.04054 19.4797 5.06986 19.4199 5.07275C19.4148 5.10928 19.4097 5.14197 19.4061 5.17466C19.4061 5.191 19.4035 5.20734 19.4061 5.22369C19.4071 5.23186 19.4081 5.24003 19.4097 5.2482C19.4117 5.25637 19.4148 5.26455 19.4179 5.27272C19.3974 5.30396 19.3913 5.34002 19.3907 5.37655C19.3928 5.4126 19.4 5.44913 19.4138 5.48422C19.4388 5.55537 19.4762 5.61978 19.4992 5.70054C19.5595 5.72169 19.6138 5.73803 19.6593 5.75822C19.6818 5.7688 19.7028 5.77889 19.7207 5.79475C19.7391 5.80869 19.7559 5.826 19.7703 5.84859C19.802 5.84427 19.825 5.85196 19.8475 5.86157C19.87 5.87022 19.8894 5.88705 19.9125 5.89714C19.935 5.9082 19.9585 5.91926 19.9851 5.91781C19.9984 5.91781 20.0122 5.91493 20.0265 5.90964C20.0408 5.90339 20.0557 5.89378 20.07 5.88032C20.0899 5.90628 20.115 5.90916 20.1396 5.91541C20.1646 5.92262 20.1887 5.92839 20.2147 5.96252C20.2214 5.95627 20.2286 5.95098 20.2347 5.94617C20.2413 5.94089 20.2475 5.9356 20.2541 5.93127C20.2669 5.92262 20.2792 5.91541 20.2915 5.90964C20.316 5.89714 20.3401 5.88849 20.3646 5.88032C20.3922 5.89089 20.4193 5.88993 20.4439 5.88128C20.4562 5.87647 20.4679 5.8707 20.4792 5.86397L20.4961 5.8534L20.5119 5.8409C20.5426 5.85003 20.5769 5.8558 20.583 5.8111C20.6096 5.77745 20.6434 5.76543 20.7063 5.78274C20.6935 5.80052 20.6792 5.81687 20.6643 5.83273C20.649 5.84811 20.6316 5.86109 20.6152 5.87455C20.5989 5.88897 20.5799 5.89955 20.5626 5.91301L20.5355 5.9332C20.5262 5.93944 20.517 5.94617 20.5078 5.95338C20.4541 5.92262 20.4199 5.94569 20.3805 5.97261C20.361 5.98511 20.3411 5.99857 20.3201 6.00578C20.2991 6.01155 20.2772 6.01107 20.2562 5.99665C20.1656 6.01107 20.0705 6.02549 19.9764 6.01636C19.8828 6.0077 19.7907 5.97502 19.7309 5.90676C19.7114 5.89955 19.691 5.8933 19.6695 5.88705L19.6071 5.86446C19.5861 5.85676 19.5657 5.84715 19.5447 5.83754C19.5253 5.82696 19.5043 5.81687 19.4864 5.80389C19.4122 5.75486 19.3549 5.68275 19.3565 5.59767C19.3309 5.58565 19.3186 5.56738 19.311 5.54864C19.3048 5.52893 19.3033 5.50874 19.3023 5.48903C19.3017 5.46884 19.2977 5.45009 19.2885 5.43087C19.2833 5.42125 19.2762 5.41212 19.2659 5.40251C19.2557 5.39289 19.2434 5.3828 19.2266 5.37222C19.2301 5.34771 19.2388 5.32319 19.2445 5.29964C19.2526 5.27608 19.2583 5.25301 19.2634 5.22994C19.2659 5.2184 19.268 5.20686 19.2685 5.19484C19.2695 5.18283 19.2705 5.17081 19.2695 5.15783C19.268 5.14485 19.2665 5.13139 19.2639 5.11649C19.2613 5.10159 19.2562 5.08573 19.2521 5.0689L19.2501 5.06746Z" fill="#DBB5D6"/>
<path d="M26.7665 26.2477C25.2392 28.9631 22.1406 30.821 18.5659 30.821C14.9911 30.821 11.8925 28.9631 10.3652 26.2477C11.892 23.5322 14.9911 21.6743 18.5659 21.6743C22.1401 21.6743 25.2397 23.5322 26.7665 26.2477Z" fill="#5B58A3"/>
<path d="M15.0507 23.9844C15.6379 24.217 16.1197 24.6963 16.7038 25.4221C17.1473 25.9725 17.6061 26.5585 17.692 27.2421C17.8531 28.5164 16.9667 29.847 15.8855 30.5497C14.2523 31.6116 12.3567 31.6645 10.4678 31.3727C8.04799 30.9987 5.98057 29.0322 6.77082 26.6498C7.1933 25.376 8.76509 23.5782 10.3568 23.6469C10.8376 23.6676 11.2842 23.8748 11.7542 23.9719C12.1793 24.0594 12.6258 24.055 13.0488 23.9594C13.9045 23.7661 14.5208 23.7743 15.0507 23.9844V23.9844Z" fill="#DBB5D6"/>
<path d="M11.9499 5.49151C11.9499 5.52083 11.9499 5.55015 11.9499 5.57947C11.9519 8.15168 11.9539 10.7244 11.9432 13.2966C11.9386 14.3772 11.9314 15.4583 11.9765 16.5379C12.0174 17.52 12.3575 18.6544 12.2475 19.6206C12.1749 20.2576 12.0501 20.9012 11.9795 21.5502C11.9396 21.9155 11.8875 22.9177 11.3151 22.9374C10.4226 22.9677 9.12032 23.0624 8.64925 22.2222C8.14288 21.3189 7.92652 20.5652 6.879 20.0461C6.35882 19.7884 5.78084 19.6514 5.19621 19.6067C4.67604 19.5668 4.03259 19.7509 3.58709 19.4034C3.14158 19.0558 3.0357 18.23 3.00553 17.7166C2.85873 15.1977 2.77894 12.6755 2.65823 10.1557C2.61271 9.19576 2.52831 8.14688 1.82656 7.44794C1.32684 6.94994 0.663952 6.81102 -0.0117188 6.7317V1.96127C-0.0117188 0.906137 0.898212 0.0509773 2.02092 0.0509773H7.96181C8.60065 0.0509773 9.24001 0.0509773 9.87885 0.0509773C10.286 0.0509773 10.8328 -0.0360288 11.2113 0.150962C11.8987 0.490334 11.8189 1.5993 11.8644 2.20402C11.9463 3.29809 11.9488 4.39552 11.9499 5.49151V5.49151Z" fill="#151515"/>
<path d="M7.83445 23.1901C7.81246 23.3728 7.76182 23.5434 7.69073 23.705C7.42373 24.3092 6.86519 24.787 6.41764 25.2927C5.00952 26.8824 5.71793 29.78 6.79972 31.4783C6.90457 31.6437 7.02017 31.8201 7.11326 31.9999H2.27104C1.01023 31.9999 -0.0117188 31.0394 -0.0117188 29.8545V10.0493C0.304379 10.0998 0.614338 10.1748 0.885936 10.3257C1.97284 10.9295 1.88742 11.9865 1.89305 12.9479C1.90072 14.3328 1.90788 15.7172 1.91607 17.1021C1.92272 18.2039 2.32014 20.1468 3.7927 20.4136C4.74918 20.5867 5.82125 20.5732 6.68464 21.0342C7.48715 21.4625 7.93419 22.3604 7.83445 23.1901V23.1901Z" fill="#151515"/>
<path d="M9.71225 24.7709C10.0498 24.632 10.3874 24.5474 10.6611 24.5729C10.9321 24.5983 11.1562 24.7776 11.4181 24.8469C11.8789 24.9685 12.3561 24.7339 12.8344 24.7017C13.4773 24.6584 14.0947 24.993 14.5125 25.442C14.9299 25.8914 15.1826 26.4461 15.4286 26.9913C15.4675 27.0773 15.5033 27.184 15.4383 27.2556C15.4041 27.2931 15.3498 27.3095 15.2987 27.3244C14.0276 27.6859 12.7039 28.0512 11.3874 27.8724C10.3936 27.7373 9.42838 27.2936 8.43252 27.4152C6.76457 27.6186 7.6658 26.2942 8.38035 25.6078C8.66218 25.3367 9.18696 24.9882 9.71225 24.7714V24.7709Z" fill="#151515"/>
<path d="M9.40137 30.5571C9.80186 30.7763 10.2852 30.8027 10.7481 30.8234C11.3644 30.8513 12.0012 30.8758 12.5782 30.6701C13.2554 30.4283 13.7633 29.901 14.2436 29.3914C14.4702 29.1511 14.7003 28.9064 14.8446 28.6146C14.9888 28.3233 15.0374 27.9734 14.8932 27.6821C14.1546 27.659 13.4927 28.0844 12.7787 28.2647C12.0135 28.4579 11.2233 28.356 10.4591 28.2142C9.36505 28.0109 8.43057 27.8412 7.30274 27.8051C7.26131 27.8037 7.21528 27.8042 7.18613 27.8316C6.63833 28.3387 9.04742 30.3634 9.40188 30.5576L9.40137 30.5571Z" fill="#151515"/>
<path d="M31.1888 21.9943C30.8128 24.8251 28.35 27.0113 25.3681 27.0113C24.2627 27.0113 23.2285 26.7109 22.3457 26.1884C23.7201 23.6099 26.4688 21.8506 29.6354 21.8506C30.1668 21.8506 30.686 21.9001 31.1893 21.9948L31.1888 21.9943Z" fill="#5B58A3"/>
<path d="M31.7271 28.9602C29.3313 30.7119 25.9453 30.6211 23.8364 28.6396C23.0549 27.9051 22.5496 27.0053 22.3184 26.0491C25.2302 25.1392 28.4976 25.7213 30.7369 27.8258C31.1123 28.1786 31.4422 28.5589 31.7271 28.9602V28.9602Z" fill="#5B58A3"/>
<path d="M30.0831 6.96046C30.0642 6.98017 30.054 6.99218 30.0509 6.99603C27.7932 9.6538 24.468 10.8801 20.928 10.3595C20.5833 10.309 20.2606 10.5301 20.2069 10.8541C20.1531 11.1781 20.3884 11.4814 20.7332 11.5319C21.3214 11.6184 21.9121 11.6617 22.4993 11.6617C23.7279 11.6617 24.9406 11.4737 26.0746 11.1026C28.0029 10.4715 29.6683 9.34424 31.0258 7.75072C31.1654 7.60555 31.5613 7.16139 31.9889 6.40237V2.47363C31.5516 5.36022 30.2575 6.78116 30.0836 6.96046H30.0831Z" fill="#5C57A2"/>
<path d="M16.5388 19.809C16.2299 20.0552 15.7972 20.097 15.3936 20.1277C14.5353 20.1936 13.677 20.2595 12.8188 20.3248C12.4183 20.8147 12.9114 21.7001 12.383 22.0678C12.2526 22.1582 12.0874 22.1895 11.9273 22.2106C11.2127 22.3067 9.76419 22.3813 9.31357 21.7323C9.12944 21.4674 9.0788 21.142 9.04556 20.8272C8.9898 20.2998 9.39592 18.7549 8.54174 18.7919C8.04458 18.8135 7.5464 18.8068 7.05077 18.7717C6.72495 18.7491 6.39402 18.7121 6.09736 18.5842C5.36952 18.2699 5.15725 17.2868 6.0503 17.0806C6.7403 16.921 7.77707 17.5546 8.28651 16.8379C8.3929 16.6879 8.42819 16.5047 8.45888 16.3269C8.87932 13.8753 8.83738 11.3771 8.79493 8.89434C8.78777 8.48622 8.77805 8.06465 8.60056 7.69211C8.21542 6.88358 7.19807 6.55959 6.29019 6.32117C5.02478 5.989 3.75885 5.65636 2.49344 5.3242C1.63261 5.09827 0.733935 4.84975 -0.00976362 4.40559V1.84443C-0.0112981 0.825837 0.867432 0 1.95127 0C1.95127 0 17.1664 0.0509539 16.2549 0.0509539C15.4417 0.543188 15.01 0.780171 14.4054 1.4916C12.8014 3.37834 13.1047 5.70876 13.1047 7.38687V14.7603C13.1047 15.3751 12.9952 16.087 13.2479 16.6715C13.8637 18.0954 15.4811 16.7403 16.415 17.6988C16.8754 18.1708 17.1255 19.3418 16.5383 19.8095L16.5388 19.809Z" fill="#5C57A2"/>
<path d="M19.4653 9.29171C19.4605 9.28906 19.456 9.28602 19.4512 9.28337V9.28223L19.4653 9.29171Z" fill="#5C57A2"/>
<path d="M19.4704 9.2934L19.4668 9.2915C19.4668 9.2915 19.4692 9.29302 19.4704 9.2934Z" fill="#151515"/>
</g>
<defs>
<clipPath id="clip0_335_51">
<rect width="32" height="32" fill="white"/>
</clipPath>
</defs>
</svg>
