<svg width="24" height="24" fill="none" xmlns="http://www.w3.org/2000/svg"><path d="M12 24c6.627 0 12-5.373 12-12S18.627 0 12 0 0 5.373 0 12s5.373 12 12 12z" fill="#8247E5"/><path d="M15.972 9.432a1.016 1.016 0 0 0-.979 0l-2.245 1.284-1.525.837-2.245 1.284a1.016 1.016 0 0 1-.979 0l-1.785-1.005c-.287-.167-.489-.474-.489-.809V9.042a.9.9 0 0 1 .49-.81l1.755-.976c.288-.168.662-.168.979 0l1.755.976c.288.168.49.475.49.81v1.284l1.525-.866V8.177a.9.9 0 0 0-.489-.81L8.978 5.525a1.016 1.016 0 0 0-.979 0l-3.31 1.842a.9.9 0 0 0-.49.81v3.711a.9.9 0 0 0 .49.81l3.31 1.841c.288.168.662.168.979 0l2.245-1.255 1.525-.866 2.245-1.255c.288-.168.662-.168.979 0l1.755.976c.288.168.49.475.49.81v1.981a.9.9 0 0 1-.49.81l-1.755 1.004a1.016 1.016 0 0 1-.979 0l-1.756-.977c-.287-.167-.489-.474-.489-.809v-1.284l-1.525.865v1.284a.9.9 0 0 0 .489.81l3.31 1.841c.288.168.662.168.978 0l3.31-1.841c.288-.168.49-.475.49-.81v-3.712a.9.9 0 0 0-.49-.809l-3.338-1.87z" fill="#fff"/></svg>