<svg width="24" height="24" fill="none" xmlns="http://www.w3.org/2000/svg"><path d="M0 12C0 5.373 5.373 0 12 0s12 5.373 12 12-5.373 12-12 12S0 18.627 0 12z" fill="#fff"/><path fill-rule="evenodd" clip-rule="evenodd" d="M12 24c6.627 0 12-5.373 12-12S18.627 0 12 0 0 5.373 0 12s5.373 12 12 12zm-3.626-6.564H5.56c-.667 0-1.001 0-1.201-.129a.805.805 0 0 1-.367-.63c-.013-.238.152-.528.483-1.107l6.163-10.798c.336-.587.504-.881.717-.99a.807.807 0 0 1 .735-.001c.213.109.381.403.718.99l1.421 2.482c.245.427.367.64.42.865.06.246.06.501.001.746-.053.226-.175.44-.42.867l-3.685 6.447c-.248.434-.372.65-.542.813a1.614 1.614 0 0 1-.653.379c-.225.066-.475.066-.975.066zm10.043 0h-3.263c-.674 0-1.01 0-1.211-.13a.805.805 0 0 1-.365-.635c-.012-.238.157-.53.496-1.11l1.63-2.796c.334-.574.502-.861.713-.969a.807.807 0 0 1 .73 0c.211.107.379.394.715.968l1.634 2.795c.34.582.51.873.499 1.111a.805.805 0 0 1-.365.636c-.2.13-.538.13-1.212.13z" fill="#E84142"/></svg>