<svg width="24" height="24" fill="none" xmlns="http://www.w3.org/2000/svg"><path d="M12 24c6.627 0 12-5.373 12-12S18.627 0 12 0 0 5.373 0 12s5.373 12 12 12z" fill="#13B5EC"/><path fill-rule="evenodd" clip-rule="evenodd" d="M12.9 9.675 15.6 8.1v3.15l-2.7-1.575zm2.7 6.75-3.6 2.1-3.6-2.1V12.75l3.6 2.1 3.6-2.1v3.675zM8.4 8.1l2.7 1.575-2.7 1.575V8.1zm4.05 2.325L15.15 12l-2.7 1.575v-3.15zm-.9 3.15L8.85 12l2.7-1.575v3.15zm3.6-6.225L12 9.15l-3.15-1.8L12 5.475l3.15 1.875zm-7.65-.3v9.825l4.5 2.55 4.5-2.55V7.05L12 4.5 7.5 7.05z" fill="#fff"/></svg>