<svg width="120" height="48" fill="none" xmlns="http://www.w3.org/2000/svg"><path d="M16.687 19.052c.422.077 1.036 1.535 1.151 2.763.038.268 0 .844 0 1.266-.038.652-.115.844-.345 1.151-.499.73-1.42 1.19-2.61 1.266-.344.039-.92.077-1.227.077-.499-.038-.537-.038-.46-.23a5.79 5.79 0 0 0 .23-.576c.499-1.534 1.611-3.99 2.187-4.757.383-.576.844-.998 1.074-.96Zm-.384-3.338c-.191 0-.422.039-.767.154-.499.153-.96.422-1.381.767-.614.46-.69.499-.73.307-.038-.307-.536-.729-.997-.767-.46-.077-1.036.153-1.266.499-.115.153-.422.652-.729 1.15-.537.921-.729 1.574-.537 1.957.115.23.077.5-.269 2.149-.614 2.993-1.611 9.17-1.611 10.36-.038 2.685 0 5.217.038 5.716.115.768.384 1.305.883 1.65s.767.422 1.304.269c.537-.115.806-.307 1.113-.73.345-.498.422-1.035.422-3.376-.038-2.839.345-7.328.575-7.597.077-.038.576-.076 1.151 0 2.15.192 3.914-.192 5.257-1.189 1.458-1.074 2.072-2.302 2.187-4.374.115-2.724-.767-5.141-2.34-6.37-.5-.344-.653-.383-1.42-.498-.384-.077-.652-.115-.883-.077ZM28.18 15.177c-.691 0-.922.346-1.535 2.302-1.343 4.451-1.765 6.638-1.88 9.63-.077 2.034.076 2.495.882 2.917.269.115.499.192.537.192.269 0 .806-.23.998-.422.307-.384 1.304-4.26 1.841-7.06.384-2.187.768-6.062.614-6.485-.268-.729-.729-1.074-1.458-1.074Zm1.764-7.175c-.69-.038-1.304.384-1.65 1.19-.383.92-.076 1.957.69 2.417.96.537 1.996.038 2.38-1.19.307-.959 0-1.88-.73-2.225-.23-.115-.46-.192-.69-.192ZM43.541 16.98a.328.328 0 0 0-.268 0c-1.42.077-3.338 1.19-5.103 2.84-.96.92-1.573 1.765-2.11 2.916-.844 1.803-.998 3.491-.384 4.604s1.918 2.033 3.338 2.302c.307.077.652.154.767.192.116 0 .844.038 1.65 0 1.343-.038 1.458-.038 2.724-.46 1.765-.614 2.724-1.075 2.955-1.459.422-.729.076-1.65-.691-1.918-.345-.115-.537-.077-2.072.307-1.65.422-1.765.46-2.916.384-1.343-.077-1.803-.154-2.34-.537-.307-.192-.346-.27-.346-.691 0-.576.46-1.727.96-2.532.46-.653 1.496-1.727 2.34-2.38l.576-.46.153.269c.269.422.614.614 1.074.614.845.038 1.382-.73 1.42-2.034.038-.69.038-.844-.192-1.15a1.823 1.823 0 0 0-1.535-.806ZM58.049 20.088h.153l.307.039-.844 1.112a250.73 250.73 0 0 0-1.727 2.494c-.537.73-.959 1.343-.959 1.343-.038.039-.038-.23 0-.575.077-1.267.46-2.072 1.688-3.415.653-.69.998-.96 1.382-.998Zm.383-2.839c-1.074.039-2.11.499-3.26 1.458-1.344 1.151-2.418 2.417-3.032 3.722-.23.537-.345.997-.69 2.916-.384 2.225-.384 2.264-.192 2.877.268.921.652 1.382 1.458 1.65.153.039.575.077.997.039.614 0 .883-.077 1.305-.307.959-.5 2.302-1.957 3.645-3.99l.805-1.19-.038.998c-.038 1.611 0 2.877.115 3.3.154.383.614.69 1.036.69.384 0 .96-.345 1.228-.73.23-.306.268-.498.422-1.994.077-.883.268-2.418.383-3.377.154-.92.27-2.11.27-2.57 0-.46.038-.998.114-1.19.154-.575-.115-1.266-.652-1.573-.345-.192-.537-.23-1.036-.153-.499.038-.729 0-1.228-.23-.422-.154-.806-.27-1.227-.307-.154-.039-.307-.039-.423-.039ZM72.29 16.635c-.538 0-1.075.077-1.344.192-.652.345-1.995 1.573-2.302 2.149-.422.652-.46 1.534-.115 2.148.346.69 1.458 1.804 3.146 3.07 2.264 1.688 2.38 2.033 1.228 2.839-.23.192-.537.345-.69.345-.384 0-1.382-.498-2.456-1.19-.46-.344-.96-.651-1.113-.69-.844-.46-1.957.422-1.765 1.381.077.46.5.921 1.765 1.842 1.036.806 2.264 1.458 2.955 1.573.614.115.575.115 1.343 0 .383-.038.959-.268 1.304-.422.729-.422 1.803-1.42 2.225-2.11.653-1.113.422-2.878-.537-4.182-.345-.499-.844-.883-2.225-1.88-.998-.69-1.88-1.381-1.957-1.458-.153-.192-.153-.23.115-.499.154-.153.422-.307.576-.345.268-.039.268-.039.268.23 0 1.381 2.072 1.65 2.571.345.23-.498.23-1.534.038-1.995-.191-.499-.805-.998-1.458-1.19-.383-.114-.997-.191-1.573-.153ZM86.078 16.635c-.537 0-1.075.077-1.343.192-.652.345-1.995 1.573-2.302 2.149-.422.652-.46 1.534-.115 2.148.345.69 1.458 1.804 3.146 3.07 2.264 1.688 2.379 2.033 1.228 2.839-.23.192-.537.345-.69.345-.385 0-1.382-.498-2.456-1.19-.46-.344-.96-.651-1.113-.69-.844-.46-1.957.422-1.765 1.381.077.46.499.921 1.765 1.842 1.036.806 2.263 1.458 2.954 1.573.614.115.576.115 1.343 0 .384-.038.96-.268 1.305-.422.729-.422 1.803-1.42 2.225-2.11.652-1.113.422-2.878-.537-4.182-.346-.499-.844-.883-2.226-1.88-.997-.69-1.88-1.381-1.956-1.458-.154-.192-.154-.23.115-.499.153-.153.422-.307.575-.345.269-.039.269-.039.269.23 0 1.381 2.072 1.65 2.57.345.23-.498.23-1.534.039-1.995-.192-.499-.806-.998-1.458-1.19-.384-.114-.998-.191-1.573-.153ZM98.869 21.316c.076-.038.115 0 .153.077.077.23.576.422 1.343.575 1.343.192 1.765.73 1.381 1.727-.23.46-1.151 1.343-1.803 1.688-.575.307-1.611.422-2.033.269-.384-.192-.5-.844-.346-2.226.154-1.688.23-1.803.844-2.033.23-.038.384-.077.46-.077ZM97.603 18.4c-.422 0-.806.23-1.228.652-.96.998-1.535 2.34-1.803 4.298-.307 2.11-.077 3.376.882 4.412.576.652 1.42 1.074 2.34 1.228.653.115 1.458.038 2.341-.154 1.957-.498 4.029-2.379 4.604-4.22.883-2.916-1.151-5.41-4.297-5.295-.499.038-.998.077-1.113.153-.115.039-.192.039-.192-.076 0-.269-.614-.806-1.074-.921a1.923 1.923 0 0 0-.46-.077Z" fill="#fff"/><path d="M110.266 27.263c-.307 0-.614.039-.883.192-.345.23-.613.767-.613 1.266 0 .422.383.96.805 1.19 1.19.613 2.456-.768 1.842-1.919-.192-.422-.691-.69-1.151-.729Z" fill="#FF8500"/></svg>