<svg width="48" height="48" fill="none" xmlns="http://www.w3.org/2000/svg"><path d="M34.73 23.485c-.27 0-.538.034-.774.169-.303.202-.54.673-.54 1.111 0 .37.338.842.708 1.044 1.044.54 2.156-.673 1.617-1.684-.169-.37-.606-.606-1.01-.64Z" fill="#FF8500"/><path d="M26.293 16.277c.37.067.91 1.347 1.01 2.425.034.236 0 .741 0 1.112-.033.572-.1.74-.303 1.01-.438.64-1.246 1.044-2.29 1.112-.303.034-.808.067-1.078.067-.438-.033-.472-.033-.404-.202a5.07 5.07 0 0 0 .202-.505c.438-1.347 1.415-3.503 1.92-4.177.337-.505.741-.876.943-.842Zm-.337-2.93c-.168 0-.37.033-.673.134a3.6 3.6 0 0 0-1.213.674c-.539.404-.606.438-.64.27-.034-.27-.472-.64-.876-.674-.404-.067-.91.135-1.111.438-.101.134-.37.572-.64 1.01-.472.809-.64 1.381-.472 1.718.101.202.067.438-.236 1.886-.538 2.628-1.414 8.05-1.414 9.095-.034 2.358 0 4.58.033 5.018.101.674.337 1.146.775 1.449.438.303.674.37 1.145.236.472-.101.708-.27.977-.64.303-.438.37-.91.37-2.964-.033-2.493.304-6.434.506-6.67.067-.033.505-.067 1.01 0 1.887.169 3.436-.168 4.615-1.044 1.28-.943 1.819-2.02 1.92-3.84.1-2.391-.674-4.513-2.055-5.591-.438-.303-.572-.337-1.246-.438-.337-.067-.573-.101-.775-.067Z" fill="#fff"/></svg>