<svg width="64" height="64" fill="none" xmlns="http://www.w3.org/2000/svg"><path d="M32 64a32 32 0 1 0 0-64 32 32 0 0 0 0 64z" fill="#26A17B"/><path d="M35.62 34.869v-.005c-.222.015-1.364.082-3.905.082-2.033 0-3.458-.057-3.962-.082v.005c-7.815-.345-13.643-1.703-13.643-3.334 0-1.626 5.834-2.99 13.643-3.334v5.315c.51.036 1.976.123 3.998.123 2.428 0 3.642-.103 3.868-.123v-5.31c7.8.35 13.613 1.708 13.613 3.334 0 1.626-5.818 2.984-13.613 3.334v-.005zm0-7.213v-4.754H46.5v-7.249H16.878v7.25h10.881v4.753c-8.843.406-15.49 2.156-15.49 4.255 0 2.099 6.652 3.848 15.49 4.26v15.238h7.867V36.17c8.828-.406 15.465-2.155 15.465-4.254 0-2.094-6.637-3.849-15.465-4.255" fill="#fff"/></svg>