<svg width="24" height="24" fill="none" xmlns="http://www.w3.org/2000/svg"><path d="M12 23.75c6.49 0 11.75-5.26 11.75-11.75S18.49.25 12 .25.25 5.51.25 12 5.51 23.75 12 23.75z" fill="#F4F4F4"/><path d="m6.869 12.152 5.189 3.013.866-6.395-6.055 3.382z" fill="#393939"/><path d="m12.058 3.695-2.459 8.667 7.647-.21-5.188-8.457z" fill="#343434"/><path d="m12.058 3.695-5.19 8.457 5.19-2.318v-6.14zm0 16.607.127-4.102-5.315-3.08 5.189 7.183z" fill="#8C8C8C"/><path d="M12.059 16.13v4.172l5.192-7.183-5.192 3.012z" fill="#3C3C3B"/><path d="m12.059 15.165 5.188-3.013-5.188-2.317v5.33z" fill="#141414"/></svg>