<svg width="24" height="24" fill="none" xmlns="http://www.w3.org/2000/svg"><g clip-path="url(#a)"><path d="m14.891 10.996 1.762-2.991 4.75 7.398.003 1.42-.016-9.77a.738.738 0 0 0-.34-.587l-8.553-4.919a.749.749 0 0 0-.73.048l-.03.019-8.301 4.81-.033.014a.735.735 0 0 0-.43.624l.015 7.963 4.424-6.858c.558-.91 1.77-1.202 2.897-1.187l1.322.035L3.84 19.51l.918.528 7.886-13.011 3.485-.012-7.865 13.34 3.279 1.886.391.226a.76.76 0 0 0 .529.01l8.672-5.026-1.659.96-4.585-7.415zm.672 9.684-3.31-5.196 2.02-3.43 4.346 6.854-3.056 1.772z" fill="#2D374B"/><path d="m12.252 15.484 3.311 5.196 3.058-1.772-4.347-6.851-2.022 3.427zm9.154 1.339-.002-1.42-4.751-7.398-1.763 2.99 4.585 7.417 1.659-.961a.736.736 0 0 0 .272-.536v-.092z" fill="#28A0F0"/><path d="m1.5 18.162 2.341 1.35 7.792-12.496-1.322-.034c-1.127-.015-2.34.277-2.897 1.187L2.99 15.027l-1.488 2.287-.002.848zM16.13 7.017l-3.486.012L4.758 20.04l2.757 1.587.749-1.27 7.865-13.34z" fill="#fff"/><path d="M22.875 6.998a2.22 2.22 0 0 0-1.042-1.784L13.17.232a2.254 2.254 0 0 0-1.987 0c-.072.036-8.427 4.88-8.427 4.88A2.208 2.208 0 0 0 1.5 6.994v10.32l1.488-2.286-.012-7.961a.742.742 0 0 1 .306-.554c.04-.03 8.536-4.946 8.563-4.96a.76.76 0 0 1 .654-.003l8.553 4.92a.738.738 0 0 1 .34.587v9.863a.719.719 0 0 1-.255.535l-1.659.961-.855.496-3.058 1.772-3.1 1.798a.76.76 0 0 1-.529-.01L8.267 20.36l-.749 1.27 3.298 1.899c.11.061.207.116.285.162.123.069.207.117.238.13.275.122.575.183.876.18.277 0 .55-.051.807-.152l9.008-5.216c.515-.4.824-1.008.848-1.66l-.003-9.975z" fill="#96BEDC"/></g><defs><clipPath id="a"><path fill="#fff" d="M0 0h24v24H0z"/></clipPath></defs></svg>