<svg width="24" height="24" fill="none" xmlns="http://www.w3.org/2000/svg"><path d="M12 24c6.627 0 12-5.373 12-12S18.627 0 12 0 0 5.373 0 12s5.373 12 12 12z" fill="#EEE"/><path d="M12 4.875a1.875 1.875 0 1 0 0-3.75 1.875 1.875 0 0 0 0 3.75z" fill="#ABE252"/><path d="M12 9.375a1.875 1.875 0 1 0 0-3.75 1.875 1.875 0 0 0 0 3.75z" fill="#4F9FDF"/><path d="M8.103 7.125a1.875 1.875 0 1 0 0-3.75 1.875 1.875 0 0 0 0 3.75z" fill="#D5643A"/><path d="M4.206 9.375a1.875 1.875 0 1 0 0-3.75 1.875 1.875 0 0 0 0 3.75z" fill="#ABE252"/><path d="M8.103 11.625a1.875 1.875 0 1 0 0-3.75 1.875 1.875 0 0 0 0 3.75z" fill="#4F9FDF"/><path d="M4.206 13.875a1.875 1.875 0 1 0 0-3.75 1.875 1.875 0 0 0 0 3.75z" fill="#E8B493"/><path d="M4.206 18.375a1.875 1.875 0 1 0 0-3.75 1.875 1.875 0 0 0 0 3.75zm3.897-2.25a1.875 1.875 0 1 0 0-3.75 1.875 1.875 0 0 0 0 3.75z" fill="#D342C3"/><path d="M8.103 20.625a1.875 1.875 0 1 0 0-3.75 1.875 1.875 0 0 0 0 3.75z" fill="#E8B493"/><path d="M12 22.875a1.875 1.875 0 1 0 0-3.75 1.875 1.875 0 0 0 0 3.75z" fill="#ABE252"/><path d="M12 18.375a1.875 1.875 0 1 0 0-3.75 1.875 1.875 0 0 0 0 3.75z" fill="#4F9FDF"/><path d="M15.897 20.625a1.875 1.875 0 1 0 0-3.75 1.875 1.875 0 0 0 0 3.75z" fill="#D5643A"/><path d="M19.794 18.375a1.875 1.875 0 1 0 0-3.75 1.875 1.875 0 0 0 0 3.75z" fill="#ABE252"/><path d="M15.897 16.125a1.875 1.875 0 1 0 0-3.75 1.875 1.875 0 0 0 0 3.75z" fill="#4F9FDF"/><path d="M19.794 13.875a1.875 1.875 0 1 0 0-3.75 1.875 1.875 0 0 0 0 3.75z" fill="#E8B493"/><path d="M19.794 9.375a1.875 1.875 0 1 0 0-3.75 1.875 1.875 0 0 0 0 3.75zm-3.897 2.25a1.875 1.875 0 1 0 0-3.75 1.875 1.875 0 0 0 0 3.75z" fill="#D342C3"/><path d="M15.897 7.125a1.875 1.875 0 1 0 0-3.75 1.875 1.875 0 0 0 0 3.75z" fill="#E8B493"/><path d="M12 13.875a1.875 1.875 0 1 0 0-3.75 1.875 1.875 0 0 0 0 3.75z" fill="#3F1A0D"/></svg>