<svg width="24" height="24" fill="none" xmlns="http://www.w3.org/2000/svg"><path d="M12 24c6.627 0 12-5.373 12-12S18.627 0 12 0 0 5.373 0 12s5.373 12 12 12z" fill="#FF8C00"/><path d="M12 3.377a6.486 6.486 0 0 0-6.48 6.48c0 .72.12 1.423.343 2.109a.914.914 0 0 0 1.148.565.914.914 0 0 0 .566-1.148A4.564 4.564 0 0 1 7.32 9.72c.069-2.417 2.023-4.406 4.44-4.526a4.675 4.675 0 0 1 4.92 4.663 4.677 4.677 0 0 1-4.406 4.663s-.908.051-1.354.12c-.223.034-.394.069-.514.086-.052.017-.103-.035-.086-.086l.154-.754.84-3.875a.898.898 0 0 0-.685-1.062.898.898 0 0 0-1.063.685s-2.023 9.429-2.04 9.532c-.103.48.205.96.685 1.063a.898.898 0 0 0 1.063-.686c.017-.103.292-1.354.292-1.354a2.277 2.277 0 0 1 1.92-1.783 19.155 19.155 0 0 1 1.011-.086 6.487 6.487 0 0 0 5.983-6.463A6.486 6.486 0 0 0 12 3.377zm.463 14.914a1.079 1.079 0 0 0-1.286.84 1.08 1.08 0 0 0 .84 1.286 1.08 1.08 0 0 0 1.286-.84c.12-.6-.24-1.166-.84-1.286z" fill="#fff"/></svg>