<svg width="24" height="24" fill="none" xmlns="http://www.w3.org/2000/svg"><circle cx="12" cy="12" r="12" fill="#fff"/><path d="M8.738 9.53c-1.858 0-3.038 2.293-3.395 1.94-.358-.352 0-8.47 6.969-8.47 4.646 0 6.552 4.47 6.433 6.706-.043.796-.272 2.47-3.038 2.47-2.144 0-2.502-.705-3.395-1.411-.876-.692-1.716-1.236-3.574-1.236z" fill="#F2B705"/><path fill-rule="evenodd" clip-rule="evenodd" d="m6.276 12.884-.012.015a.375.375 0 1 1-.599-.45l.047-.062c.647-.862 1.5-1.997 3.29-1.997.999 0 1.696.243 2.263.59.277.17.517.36.736.547.077.065.15.127.22.189.138.119.268.231.41.343.16.127.311.26.448.38.06.052.115.102.17.148a3.4 3.4 0 0 0 .562.41c.396.224.953.393 1.982.393 1.162 0 1.828-.453 2.204-.944a.375.375 0 1 1 .596.456c-.523.682-1.412 1.238-2.8 1.238-1.115 0-1.81-.184-2.35-.49a4.223 4.223 0 0 1-.684-.494l-.194-.17a9.49 9.49 0 0 0-.4-.339 11.993 11.993 0 0 1-.45-.379 24.305 24.305 0 0 0-.198-.169 5.208 5.208 0 0 0-.644-.48c-.448-.274-1.01-.48-1.87-.48-1.414 0-2.06.86-2.727 1.745zm.064.704c.206 0 .374.168.374.375v3.132a.375.375 0 0 1-.75 0v-3.132c0-.207.168-.375.375-.375z" fill="#54CAC7"/><path fill-rule="evenodd" clip-rule="evenodd" d="M11.343 13.235c.207 0 .375.168.375.375v3.133a.375.375 0 0 1-.75 0V13.61c0-.207.168-.375.375-.375zm5.004 1.412c.207 0 .375.168.375.375v3.485a.375.375 0 0 1-.75 0v-3.485c0-.207.168-.375.375-.375zm-1.787 0c.207 0 .375.168.375.375v4.191a.375.375 0 1 1-.75 0v-4.191c0-.207.167-.375.375-.375zm-1.787-.706c.207 0 .375.168.375.375v1.368a.375.375 0 1 1-.75 0v-1.368c0-.207.168-.375.375-.375zm5.003.706c.207 0 .375.168.375.375v1.368a.375.375 0 0 1-.75 0v-1.368c0-.207.168-.375.375-.375zm-9.649-2.471c.207 0 .375.168.375.375v3.839a.375.375 0 0 1-.75 0v-3.84c0-.207.168-.375.375-.375zm1.43.354c.207 0 .375.167.375.374v7.72a.375.375 0 0 1-.75 0v-7.72c0-.207.168-.375.375-.375z" fill="#54CAC7"/></svg>